<?xml version="1.0" encoding="UTF-8" standalone="no"?>
<!DOCTYPE svg PUBLIC "-//W3C//DTD SVG 1.1//EN" "http://www.w3.org/Graphics/SVG/1.1/DTD/svg11.dtd">
<svg width="100%" height="100%" viewBox="0 0 17 17" version="1.1" xmlns="http://www.w3.org/2000/svg" xmlns:xlink="http://www.w3.org/1999/xlink" xml:space="preserve" xmlns:serif="http://www.serif.com/" style="fill-rule:evenodd;clip-rule:evenodd;stroke-linejoin:round;stroke-miterlimit:2;">
    <g transform="matrix(1,0,0,1,-10337,-9702.4)">
        <g transform="matrix(-3.5463e-14,0.930582,-0.930582,-3.5463e-14,17891.9,1932.8)">
            <path d="M8359.68,8111L8359.68,8117C8359.68,8117.83 8359.01,8118.5 8358.18,8118.5C8357.35,8118.5 8356.68,8117.83 8356.68,8117L8356.68,8111L8350.68,8111C8349.85,8111 8349.18,8110.33 8349.18,8109.5C8349.18,8108.67 8349.85,8108 8350.68,8108L8356.68,8108L8356.68,8102C8356.68,8101.17 8357.35,8100.5 8358.18,8100.5C8359.01,8100.5 8359.68,8101.17 8359.68,8102L8359.68,8108L8365.68,8108C8366.51,8108 8367.18,8108.67 8367.18,8109.5C8367.18,8110.33 8366.51,8111 8365.68,8111L8359.68,8111Z" style="fill:rgb(47,111,102);"/>
        </g>
    </g>
</svg>
