<?xml version="1.0" encoding="UTF-8" standalone="no"?>
<!DOCTYPE svg PUBLIC "-//W3C//DTD SVG 1.1//EN" "http://www.w3.org/Graphics/SVG/1.1/DTD/svg11.dtd">
<svg width="100%" height="100%" viewBox="0 0 214 230" version="1.1" xmlns="http://www.w3.org/2000/svg" xmlns:xlink="http://www.w3.org/1999/xlink" xml:space="preserve" xmlns:serif="http://www.serif.com/" style="fill-rule:evenodd;clip-rule:evenodd;stroke-linecap:square;stroke-linejoin:round;stroke-miterlimit:1.5;">
    <g transform="matrix(1,0,0,1,-16275.8,-105.507)">
        <g>
            <g>
                <g transform="matrix(1.10938,0,0,1.1013,11726.2,-1393.07)">
                    <circle cx="4197.29" cy="1473.29" r="96.289" style="fill:rgb(47,111,102);"/>
                </g>
                <g transform="matrix(1.00247,0,0,0.99517,12174.9,-1236.71)">
                    <circle cx="4197.29" cy="1473.29" r="96.289" style="fill:rgb(47,111,102);stroke:white;stroke-width:6.01px;"/>
                </g>
                <g transform="matrix(0.242188,0,0,0.242188,16320.6,167.465)">
                    <g>
                        <g>
                            <clipPath id="_clip1">
                                <rect x="0" y="0" width="512" height="512"/>
                            </clipPath>
                            <g clip-path="url(#_clip1)">
                                <g transform="matrix(1,0,0,1,212.125,276.688)">
                                    <path d="M0,0C1.299,1.095 2.592,2.198 3.875,3.313C4.886,4.076 5.896,4.839 6.938,5.625C9.575,8.038 11.482,10.351 13.625,13.188C19.924,21.223 27.699,26.637 37.875,28.313C49.185,29.378 58.284,27.225 67.445,20.461C70.955,17.358 73.668,13.762 76.547,10.082C88.06,-3.614 107.081,-13.584 124.875,-15.688C149.748,-17.041 171.575,-13.439 190.875,3.313C191.865,4.055 192.855,4.798 193.875,5.563C196.755,7.95 198.89,10.81 201.188,13.75C207.588,21.703 214.729,26.53 224.875,28.313C236.424,29.414 245.309,27.092 254.629,20.215C257.256,17.99 259.311,15.556 261.465,12.887C265.763,8.088 271.034,6.595 277.328,6.223C284.705,6.483 289.716,9.505 295.148,14.301C300.105,20.076 300.485,25.511 300.262,32.859C299.048,43.696 289.819,51.56 281.875,58.313C264.072,72.143 241.316,77.154 219.188,74.688C196.967,71.123 176.798,59.421 163.438,41.063C157.725,34.933 149.25,30.941 140.875,30.313C128.893,30.208 119.79,33.288 110.875,41.313C107.193,45.173 103.707,49.205 100.207,53.23C86.755,67.745 66.068,74.178 46.878,75.187C25.905,75.948 5.686,69.267 -10.125,55.313C-20.082,45.878 -20.082,45.878 -23.625,41C-29.304,34.895 -37.798,30.938 -46.125,30.313C-58.107,30.208 -67.21,33.288 -76.125,41.313C-79.807,45.173 -83.293,49.205 -86.793,53.23C-100.245,67.745 -120.932,74.178 -140.122,75.187C-162.927,76.015 -183.216,67.989 -199.988,52.703C-207.657,45.461 -212.203,40.167 -212.688,29.313C-212.433,21.102 -209.959,17.211 -204.375,11.5C-198.105,7.28 -192.172,5.535 -184.617,6.605C-179.179,8.148 -174.685,11.349 -171.188,15.75C-165.677,22.597 -157.737,26.894 -149.125,28.313C-137.644,29.394 -128.709,27.145 -119.445,20.277C-115.913,17.286 -113.05,13.882 -110.125,10.313C-108.501,8.605 -106.833,6.937 -105.125,5.313C-104.336,4.531 -104.336,4.531 -103.531,3.734C-75.877,-22.279 -29.665,-22.758 0,0Z" style="fill:white;fill-rule:nonzero;"/>
                                </g>
                                <g transform="matrix(1,0,0,1,266.375,57.5625)">
                                    <path d="M0,0C4.871,4.523 6.785,9.424 7.234,16.031C7.3,17.999 7.347,19.968 7.375,21.938C7.405,22.951 7.434,23.964 7.465,25.008C7.535,27.484 7.588,29.96 7.625,32.438C9.202,33.139 10.787,33.823 12.375,34.5C13.257,34.883 14.138,35.266 15.047,35.66C17.849,36.505 18.966,36.58 21.625,35.438C23.246,34.179 23.246,34.179 24.684,32.566C25.235,31.992 25.786,31.418 26.354,30.826C27.489,29.613 28.624,28.399 29.76,27.186C33.484,23.305 36.334,20.946 41.801,20.102C47.53,19.997 51.961,20.987 56.625,24.438C60.415,29.199 62.046,33.135 61.879,39.277C60.936,47.301 55.316,52.084 49.603,57.138C47.791,58.748 47.791,58.748 45.625,61.438C45.429,63.907 45.429,63.907 46.625,66.438C46.875,67.127 47.124,67.817 47.382,68.528C48.1,70.509 48.86,72.474 49.625,74.438C50.285,74.447 50.945,74.456 51.625,74.466C54.647,74.52 57.667,74.603 60.688,74.688C61.726,74.702 62.764,74.716 63.834,74.73C70.264,74.935 74.42,75.557 79.625,79.438C82.863,83.074 84.428,87.611 84.625,92.438C83.958,98.354 81.999,102.258 77.625,106.438C71.5,109.864 66.1,109.8 59.188,109.625C58.17,109.611 57.152,109.598 56.104,109.584C53.61,109.549 51.118,109.5 48.625,109.438C48.47,110.706 48.47,110.706 48.313,112C47.542,115.852 46.262,118.878 44.625,122.438C45.033,122.825 45.442,123.212 45.863,123.612C47.732,125.397 49.584,127.198 51.438,129C52.08,129.609 52.723,130.218 53.385,130.846C58.361,135.719 61.162,139.798 62.063,146.875C61.371,152.505 59.269,156.6 55.5,160.813C50.292,163.756 45.061,164.655 39.125,164.125C33.763,161.54 29.902,157.517 25.625,153.438C23.314,151.41 20.97,149.426 18.625,147.438C17.703,147.871 17.703,147.871 16.762,148.313C15.953,148.684 15.145,149.055 14.313,149.438C13.512,149.809 12.711,150.18 11.887,150.563C9.625,151.438 9.625,151.438 6.625,151.438C6.656,152.428 6.656,152.428 6.688,153.438C6.772,156.458 6.824,159.479 6.875,162.5C6.909,163.538 6.942,164.577 6.977,165.646C7.06,172.191 6.546,176.131 2.625,181.438C-2.362,186.06 -6.281,186.744 -12.875,186.648C-17.89,186.225 -20.964,184.119 -24.188,180.438C-27.084,176.465 -27.499,173.898 -27.473,169.113C-27.468,167.571 -27.468,167.571 -27.463,165.998C-27.45,164.39 -27.45,164.39 -27.438,162.75C-27.433,161.667 -27.428,160.583 -27.424,159.467C-27.412,156.79 -27.396,154.114 -27.375,151.438C-28.643,151.283 -28.643,151.283 -29.938,151.125C-33.789,150.355 -36.816,149.075 -40.375,147.438C-41.255,148.341 -42.136,149.245 -43.043,150.176C-44.216,151.367 -45.389,152.559 -46.563,153.75C-47.43,154.642 -47.43,154.642 -48.314,155.553C-53.079,160.371 -57.143,163.87 -64.191,164.496C-68.893,164.37 -73.356,163.147 -76.984,160.074C-80.538,156.029 -82.197,152.364 -82.688,147.063C-81.977,138.816 -77.96,134.471 -72.188,129C-71.533,128.364 -70.879,127.728 -70.205,127.072C-68.604,125.518 -66.994,123.973 -65.375,122.438C-65.664,121.75 -65.953,121.063 -66.25,120.355C-66.621,119.454 -66.993,118.553 -67.375,117.625C-67.746,116.732 -68.118,115.838 -68.5,114.918C-69.375,112.438 -69.375,112.438 -69.375,109.438C-70.312,109.469 -70.312,109.469 -71.268,109.501C-74.137,109.585 -77.005,109.636 -79.875,109.688C-80.857,109.721 -81.84,109.755 -82.852,109.789C-90.57,109.892 -96.008,108.539 -101.75,103.25C-104.383,98.694 -105.824,94.321 -105,89.031C-103.333,83.35 -100.725,79.467 -95.554,76.334C-92.924,75.252 -90.793,75.118 -87.953,75.023C-86.928,74.985 -85.904,74.946 -84.848,74.906C-83.784,74.875 -82.721,74.844 -81.625,74.813C-80.546,74.774 -79.467,74.735 -78.355,74.695C-75.695,74.601 -73.036,74.516 -70.375,74.438C-69.674,72.86 -68.989,71.275 -68.313,69.688C-67.93,68.806 -67.547,67.924 -67.152,67.016C-66.313,64.231 -66.261,63.087 -67.375,60.438C-69.106,58.595 -70.833,56.894 -72.688,55.188C-78.155,49.917 -82.344,45.252 -82.875,37.438C-82.607,32.893 -81.038,29.11 -78.375,25.438C-74.1,22.035 -70.516,20.301 -65.063,20.188C-63.955,20.149 -63.955,20.149 -62.824,20.109C-55.232,21.127 -50.953,26.683 -46.143,32.051C-43.145,35.473 -43.145,35.473 -38.973,36.516C-37.687,35.982 -37.687,35.982 -36.375,35.438C-34.938,34.915 -33.5,34.395 -32.063,33.875C-30.846,33.401 -29.629,32.926 -28.375,32.438C-28.366,31.813 -28.356,31.188 -28.347,30.545C-28.293,27.675 -28.209,24.807 -28.125,21.938C-28.111,20.955 -28.097,19.973 -28.082,18.961C-27.874,12.713 -27.097,7.602 -23.375,2.438C-16.174,-3.413 -8.39,-3.884 0,0Z" style="fill:white;fill-rule:nonzero;"/>
                                </g>
                                <g transform="matrix(1,0,0,1,212.188,381.75)">
                                    <path d="M0,0C1.278,1.075 2.55,2.157 3.813,3.25C4.679,3.889 5.545,4.529 6.438,5.188C9.295,7.669 11.662,10.43 14.125,13.297C21.377,21.69 28.882,27.489 40.148,28.57C51.808,28.95 60.78,25.6 69.813,18.25C72.3,15.702 74.551,12.998 76.813,10.25C78.437,8.542 80.105,6.874 81.813,5.25C82.601,4.469 82.601,4.469 83.406,3.672C99.908,-11.851 120.833,-16.323 142.836,-16.02C160.803,-15.441 177.262,-8.519 190.813,3.25C191.844,4.034 192.875,4.818 193.938,5.625C201.194,12.25 206.694,19.655 207.25,29.688C206.94,36.888 204.199,42.319 198.938,47.188C192.98,51.928 187.288,53.051 179.813,52.25C172.701,50.683 167.28,46.623 163.012,40.789C157.471,34.392 148.275,30.996 140,30.188C129.046,29.963 119.537,33.011 111.317,40.638C107.984,44.03 104.899,47.635 101.813,51.25C88.911,66.043 69.053,73.723 49.813,75.25C27.969,76.619 6.324,69.698 -10.188,55.25C-20.369,45.702 -20.369,45.702 -24.141,40.617C-29.616,34.285 -38.9,30.978 -47.063,30.188C-52.138,30.077 -56.473,30.346 -61.188,32.25C-62.135,32.632 -63.082,33.013 -64.059,33.406C-70.662,36.374 -74.842,39.592 -79.379,45.195C-83.316,49.668 -88.369,51.805 -94.23,52.488C-101.262,52.732 -106.923,51.173 -112.238,46.414C-117.516,40.71 -119.719,35.468 -119.496,27.676C-117.921,15.298 -109.249,7.591 -99.929,0.332C-70.783,-21.409 -29.182,-22.429 0,0Z" style="fill:white;fill-rule:nonzero;"/>
                                </g>
                            </g>
                        </g>
                    </g>
                </g>
            </g>
        </g>
    </g>
</svg>
