<?xml version="1.0" encoding="UTF-8" standalone="no"?><!DOCTYPE svg PUBLIC "-//W3C//DTD SVG 1.1//EN" "http://www.w3.org/Graphics/SVG/1.1/DTD/svg11.dtd"><svg width="100%" height="100%" viewBox="0 0 12 12" version="1.1" xmlns="http://www.w3.org/2000/svg" xmlns:xlink="http://www.w3.org/1999/xlink" xml:space="preserve" xmlns:serif="http://www.serif.com/" style="fill-rule:evenodd;clip-rule:evenodd;stroke-linejoin:round;stroke-miterlimit:2;"><g><path d="M3.328,8.108c-0,0 0.766,0.057 1.072,0.124c0.05,0.011 0.136,0.042 0.202,0.068c0.078,0.031 0.191,0.093 0.262,0.118c0.097,0.033 0.251,0.068 0.299,0.076c0.066,0.011 -0.255,-0.009 -0.531,-0.053c-0.176,-0.028 -0.33,-0.08 -0.371,-0.093c-0.107,-0.034 -0.933,-0.24 -0.933,-0.24Z" style="fill:#fff;"/><path d="M9.967,7.577c-1.798,0.617 -4.269,-0.052 -4.269,-0.052c0.013,0.033 -1.317,-0.473 -2.55,-0.439c-0.737,0.02 -1.495,0.197 -2.055,0.415c-0.566,0.222 -0.929,0.474 -0.929,0.474l-0.108,0l0,-1.081c0.246,-0.151 0.508,-0.246 0.783,-0.375c0.592,-0.277 1.242,-0.56 1.907,-0.826c1.705,-0.683 3.567,-1.32 5.223,-1.646c0.809,-0.159 1.561,-0.31 2.196,-0.377c1.097,-0.115 1.835,-0.073 1.835,-0.073l-2.033,3.98Zm-3.559,-2.427c-0.171,-0 -0.311,0.139 -0.311,0.311c0,0.171 0.14,0.311 0.311,0.311c0.172,-0 0.311,-0.14 0.311,-0.311c0,-0.172 -0.139,-0.311 -0.311,-0.311Zm-2.007,0.653c-0.172,-0 -0.312,0.139 -0.312,0.311c0,0.172 0.14,0.311 0.312,0.311c0.171,0 0.311,-0.139 0.311,-0.311c-0,-0.172 -0.14,-0.311 -0.311,-0.311Zm0.982,-0.334c-0.172,0 -0.311,0.139 -0.311,0.311c-0,0.172 0.139,0.311 0.311,0.311c0.172,0 0.311,-0.139 0.311,-0.311c0,-0.172 -0.139,-0.311 -0.311,-0.311Z" style="fill:#fff;"/><path d="M2.805,4.251c0.183,-0.069 0.376,-0.146 0.566,-0.212c0.33,-0.115 0.613,-0.165 0.613,-0.165c0.125,-0.038 0.219,-0.159 0.182,-0.283c-0.038,-0.125 -0.151,-0.156 -0.276,-0.118c-0,-0 -0.707,0.165 -1.226,0.401l-0.096,-0.339c-0.716,0.122 -0.869,-0.004 -0.869,-0.004c0.84,-0.355 1.746,-0.548 2.496,-0.607c0.883,-0.069 1.534,0.016 1.534,0.016l2.832,0.641c-0.301,-0.015 -0.855,0.138 -1.342,0.253c-0.579,0.136 -1.301,0.305 -1.911,0.502c-1.229,0.398 -2.238,0.853 -2.238,0.853l-0.265,-0.938Z" style="fill:#fff;"/><path d="M0,8.4c0,0 1.404,-1.117 3.371,-1.061c0,0 1.048,0.013 2.146,0.377c-0,0 1.62,0.4 2.947,0.354c-0.004,0 1.599,-0.133 2.192,-0.471c0.379,-0.216 0.623,-0.35 0.623,-0.35c0.007,-0.004 -0.022,0.056 -0.057,0.09c-0.071,0.071 -0.184,0.185 -0.424,0.354c-0.193,0.135 -0.428,0.251 -0.59,0.33c-0.353,0.173 -0.739,0.337 -1.155,0.424c-0,0 -0.574,0.188 -1.578,0.163c-0.281,-0.007 -0.599,0.004 -0.945,-0.045c-0.224,-0.032 -0.481,-0.086 -0.73,-0.141c-0.038,-0.009 -0.619,-0.186 -1.297,-0.377c-0.772,-0.219 -1.637,-0.21 -1.957,-0.213c-0.259,-0.002 -0.781,0.061 -1.306,0.17c-0.64,0.133 -1.24,0.396 -1.24,0.396Z" style="fill:#fff;"/><path d="M0.094,8.919c0.042,-0.055 0.665,-0.454 1.415,-0.617c0.466,-0.101 1.179,-0.197 2.145,0.075c0,-0 0.969,0.235 1.462,0.306c0.388,0.056 0.748,-0.014 1.047,0.013c0.292,0.027 0.812,0.116 0.812,0.116c-0,0 -0.346,0.129 -0.835,0.224c-0.542,0.106 -1.34,0.111 -2.25,-0.164c-0,-0 -0.832,-0.318 -1.933,-0.33c-1.102,-0.013 -1.863,0.377 -1.863,0.377Z" style="fill:#fff;"/></g></svg>