<?xml version="1.0" encoding="UTF-8" standalone="no"?>
<!DOCTYPE svg PUBLIC "-//W3C//DTD SVG 1.1//EN" "http://www.w3.org/Graphics/SVG/1.1/DTD/svg11.dtd">
<svg width="100%" height="100%" viewBox="0 0 214 230" version="1.1" xmlns="http://www.w3.org/2000/svg" xmlns:xlink="http://www.w3.org/1999/xlink" xml:space="preserve" xmlns:serif="http://www.serif.com/" style="fill-rule:evenodd;clip-rule:evenodd;stroke-linecap:square;stroke-linejoin:round;stroke-miterlimit:1.5;">
    <g transform="matrix(1,0,0,1,-16275.7,-118.087)">
        <g>
            <g transform="matrix(1.10938,0,0,1.1013,11726.2,-1380.49)">
                <circle cx="4197.29" cy="1473.29" r="96.289" style="fill:rgb(47,111,102);"/>
            </g>
            <g transform="matrix(1.00247,0,0,0.99517,12174.9,-1224.13)">
                <circle cx="4197.29" cy="1473.29" r="96.289" style="fill:rgb(47,111,102);stroke:white;stroke-width:6.01px;"/>
            </g>
            <g transform="matrix(0.262711,0,0,0.262711,16413.5,-1651.92)">
                <g transform="matrix(1,0,0,1,131.411,7253.91)">
                    <path d="M0,0C-3.837,27.023 -22.453,54.614 -43.878,70.851C-66.413,87.291 -91.585,92.32 -118.735,95.445C-120.668,95.672 -122.602,95.899 -124.536,96.127C-129.77,96.742 -135.006,97.35 -140.241,97.957C-145.846,98.608 -151.449,99.266 -157.053,99.922C-167.766,101.177 -178.481,102.425 -189.195,103.672C-200.977,105.043 -212.758,106.421 -224.539,107.799C-239.645,109.566 -254.751,111.331 -269.859,113.088C-274.519,113.63 -279.18,114.172 -283.84,114.714C-284.992,114.848 -286.143,114.982 -287.329,115.12C-302.942,116.937 -318.553,118.771 -334.162,120.622C-342.562,121.617 -350.962,122.608 -359.362,123.598C-366.141,124.397 -372.919,125.202 -379.697,126.013C-383.866,126.509 -388.036,127 -392.207,127.489C-394.124,127.715 -396.04,127.944 -397.956,128.175C-425.676,131.52 -425.676,131.52 -430.824,128.152C-431.542,127.112 -432.26,126.072 -433,125C-433.583,124.269 -434.167,123.539 -434.768,122.786C-444.534,110.432 -450.007,100.422 -448.625,84.492C-448.223,81.297 -447.729,78.139 -447,75C-439.778,73.04 -432.47,71.817 -425.093,70.594C-423.671,70.356 -422.249,70.117 -420.827,69.878C-416.91,69.222 -412.992,68.569 -409.075,67.917C-404.789,67.203 -400.505,66.485 -396.22,65.767C-388.695,64.508 -381.171,63.251 -373.645,61.995C-362.605,60.153 -351.565,58.308 -340.525,56.462C-335.252,55.581 -329.978,54.699 -324.705,53.817C-323.634,53.638 -322.564,53.459 -321.461,53.275C-313.637,51.967 -305.812,50.66 -297.988,49.353C-265.007,43.843 -232.028,38.32 -199.05,32.791C-188.915,31.092 -178.78,29.393 -168.644,27.695C-167.931,27.576 -167.218,27.456 -166.483,27.333C-159.3,26.129 -152.117,24.926 -144.934,23.722C-141.361,23.124 -137.788,22.525 -134.215,21.927C-133.51,21.808 -132.804,21.69 -132.077,21.568C-121.372,19.775 -110.668,17.98 -99.963,16.184C-87.696,14.127 -75.429,12.071 -63.161,10.018C-56.83,8.958 -50.499,7.897 -44.168,6.834C-38.335,5.855 -32.501,4.878 -26.667,3.903C-24.54,3.547 -22.414,3.19 -20.288,2.832C-17.407,2.348 -14.526,1.867 -11.645,1.386C-10.382,1.172 -10.382,1.172 -9.094,0.955C-6.027,0.446 -3.115,0 0,0ZM-94,30C-94,33.272 -93.607,35.12 -91.75,37.813C-89.41,39.4 -87.834,39.865 -85,40C-81.287,38.249 -81.287,38.249 -79,35C-78.611,31.418 -78.564,29.637 -80.625,26.625C-86.204,22.808 -90.292,24.832 -94,30ZM-124,32C-125.907,34.543 -126.006,35.856 -125.875,39.063C-125.222,42.023 -125.222,42.023 -123.313,43.875C-120.264,45.358 -118.353,45.489 -115,45C-111.944,42.909 -111.135,41.707 -110.438,38.063C-111.189,33.971 -112.747,32.513 -116,30C-119.769,30 -121.007,30.005 -124,32ZM-156.5,38.125C-158.252,40.921 -158.252,40.921 -157.938,44.125C-156.988,47.037 -156.474,48.259 -154,50C-152.148,51.005 -152.148,51.005 -150,51C-147.202,49.601 -145.212,48.212 -143,46C-142.536,42.444 -142.572,40.65 -144.563,37.625C-148.888,34.741 -152.528,34.749 -156.5,38.125Z" style="fill:white;fill-rule:nonzero;"/>
                </g>
                <g transform="matrix(1,0,0,1,126.411,7237.91)">
                    <path d="M0,0L0,2C-82.865,15.916 -165.735,29.803 -280.281,48.974C-291.635,50.873 -302.988,52.774 -314.342,54.674C-327.412,56.862 -340.482,59.05 -353.552,61.236C-360.338,62.372 -367.123,63.507 -373.909,64.643C-380.184,65.694 -386.459,66.744 -392.735,67.793C-395.029,68.177 -397.324,68.561 -399.618,68.946C-402.725,69.466 -405.831,69.985 -408.938,70.505C-409.853,70.658 -410.768,70.811 -411.71,70.97C-417.886,72 -417.886,72 -419,72C-419.124,67.534 -419.215,63.07 -419.275,58.603C-419.3,57.085 -419.334,55.567 -419.377,54.049C-419.438,51.862 -419.466,49.676 -419.488,47.488C-419.514,46.174 -419.541,44.859 -419.568,43.505C-418.841,39.02 -417.466,37.869 -414,35C-410.815,33.887 -410.815,33.887 -407.145,33.187C-406.466,33.052 -405.787,32.917 -405.087,32.778C-402.816,32.331 -400.54,31.912 -398.262,31.493C-396.621,31.176 -394.981,30.857 -393.34,30.537C-388.855,29.667 -384.366,28.821 -379.876,27.979C-375.089,27.077 -370.307,26.153 -365.524,25.231C-356.279,23.453 -347.03,21.695 -337.78,19.944C-327.148,17.93 -316.52,15.895 -305.893,13.858C-287.872,10.405 -269.848,6.966 -251.823,3.538C-231.686,-0.293 -211.556,-4.153 -191.429,-8.033C-187.833,-8.726 -184.238,-9.419 -180.642,-10.111C-179.606,-10.311 -179.606,-10.311 -178.549,-10.514C-176.501,-10.909 -174.452,-11.303 -172.404,-11.698C-171.744,-11.825 -171.084,-11.952 -170.404,-12.083C-165.894,-12.951 -161.385,-13.819 -156.875,-14.688C-155.615,-14.93 -154.355,-15.173 -153.057,-15.422C-145.936,-16.793 -138.814,-18.16 -131.692,-19.524C-129.597,-19.925 -127.502,-20.327 -125.408,-20.73C-122.596,-21.272 -119.784,-21.809 -116.972,-22.346C-116.171,-22.501 -115.369,-22.656 -114.543,-22.816C-73.537,-30.608 -37.642,-14.202 0,0Z" style="fill:white;fill-rule:nonzero;"/>
                </g>
                <g transform="matrix(1,0,0,1,-29.5892,7152.91)">
                    <path d="M0,0C2.423,1.927 4.028,3.469 5.938,5.813C6.448,6.402 6.959,6.992 7.486,7.599C9.017,9.379 10.512,11.183 12,13C12.81,13.977 13.619,14.954 14.453,15.961C15.929,17.762 17.397,19.571 18.855,21.387C20.999,23.998 23.224,26.504 25.5,29C38.397,43.191 38.397,43.191 40,48C28.762,50.223 17.522,52.44 6.281,54.65C1.061,55.676 -4.159,56.704 -9.377,57.737C-14.414,58.734 -19.452,59.725 -24.491,60.713C-26.412,61.09 -28.333,61.47 -30.254,61.852C-32.946,62.386 -35.639,62.914 -38.333,63.439C-39.124,63.598 -39.916,63.757 -40.732,63.921C-44.866,64.72 -48.769,65.339 -53,65C-55.023,63.247 -55.023,63.247 -56.805,60.793C-57.467,59.901 -58.13,59.008 -58.813,58.089C-59.493,57.131 -60.174,56.174 -60.875,55.188C-61.931,53.75 -61.931,53.75 -63.008,52.284C-65.023,49.535 -67.013,46.769 -69,44C-69.938,42.717 -70.878,41.436 -71.82,40.156C-73.563,37.782 -75.292,35.399 -77,33C-74.118,29.854 -71.374,27.925 -67.574,26.004C-66.482,25.451 -65.39,24.899 -64.264,24.329C-63.084,23.746 -61.904,23.163 -60.688,22.563C-60.083,22.261 -59.478,21.96 -58.854,21.65C-10.575,-2.333 -10.575,-2.333 0,0Z" style="fill:white;fill-rule:nonzero;"/>
                </g>
                <g transform="matrix(1,0,0,1,-118.589,7192.91)">
                    <path d="M0,0C1.531,1.617 1.531,1.617 3.145,3.875C3.739,4.696 4.334,5.517 4.947,6.363C5.563,7.233 6.178,8.104 6.813,9C8.027,10.688 9.242,12.375 10.457,14.063C11.046,14.889 11.634,15.715 12.241,16.566C14.408,19.565 16.661,22.492 18.94,25.406C20,27 20,27 20,29C10.985,30.795 1.97,32.586 -7.046,34.372C-11.234,35.202 -15.422,36.033 -19.609,36.868C-23.661,37.675 -27.714,38.479 -31.767,39.28C-33.302,39.584 -34.836,39.889 -36.371,40.196C-45.886,42.097 -55.375,43.741 -65,45C-62.667,42.037 -60.538,39.402 -57.523,37.125C-56.532,36.37 -56.532,36.37 -55.521,35.6C-54.812,35.072 -54.104,34.544 -53.375,34C-52.626,33.436 -51.876,32.872 -51.104,32.291C-48.742,30.519 -46.372,28.759 -44,27C-43.269,26.452 -42.538,25.904 -41.784,25.34C-7.911,0 -7.911,0 0,0Z" style="fill:white;fill-rule:nonzero;"/>
                </g>
            </g>
            <g transform="matrix(0.241534,0,0,0.241534,16342.5,185.756)">
                <path d="M0,0C4.871,4.523 6.785,9.424 7.234,16.031C7.3,17.999 7.347,19.968 7.375,21.937L7.465,25.008C7.535,27.484 7.588,29.96 7.625,32.438C9.202,33.139 10.787,33.823 12.375,34.5L15.047,35.66C17.849,36.505 18.966,36.58 21.625,35.438C23.246,34.179 23.246,34.179 24.684,32.566L26.354,30.826L29.76,27.186C33.484,23.305 36.334,20.946 41.801,20.102C47.53,19.997 51.961,20.987 56.625,24.437C60.415,29.199 62.046,33.135 61.879,39.277C60.936,47.301 55.316,52.084 49.603,57.138C47.791,58.748 47.791,58.748 45.625,61.438C45.429,63.907 45.429,63.907 46.625,66.437L47.382,68.528C48.1,70.509 48.86,72.474 49.625,74.438L51.625,74.466C54.647,74.52 57.667,74.603 60.688,74.687L63.834,74.73C70.264,74.935 74.42,75.557 79.625,79.438C82.863,83.074 84.428,87.611 84.625,92.438C83.958,98.354 81.999,102.258 77.625,106.437C71.5,109.864 66.1,109.8 59.188,109.625L56.104,109.584C53.61,109.549 51.118,109.5 48.625,109.437L48.313,112C47.542,115.852 46.262,118.878 44.625,122.438L45.863,123.612C47.732,125.397 49.584,127.198 51.437,129L53.385,130.846C58.361,135.719 61.162,139.798 62.063,146.875C61.371,152.505 59.269,156.6 55.5,160.812C50.292,163.756 45.061,164.655 39.125,164.125C33.763,161.54 29.902,157.517 25.625,153.437C23.314,151.41 20.97,149.426 18.625,147.438L16.762,148.313L14.312,149.438L11.887,150.562C9.625,151.437 9.625,151.437 6.625,151.437L6.688,153.438C6.772,156.458 6.824,159.479 6.875,162.5L6.977,165.646C7.06,172.191 6.546,176.131 2.625,181.438C-2.362,186.06 -6.281,186.744 -12.875,186.648C-17.89,186.225 -20.964,184.119 -24.187,180.438C-27.084,176.465 -27.499,173.898 -27.473,169.113L-27.463,165.998L-27.438,162.75L-27.424,159.467C-27.412,156.79 -27.396,154.114 -27.375,151.437L-29.938,151.125C-33.789,150.355 -36.816,149.075 -40.375,147.438L-43.043,150.176L-46.563,153.75L-48.314,155.553C-53.079,160.371 -57.143,163.87 -64.191,164.496C-68.893,164.37 -73.356,163.147 -76.984,160.074C-80.538,156.029 -82.197,152.364 -82.688,147.062C-81.977,138.816 -77.96,134.471 -72.188,129L-70.205,127.072C-68.604,125.518 -66.994,123.973 -65.375,122.438L-66.25,120.355L-67.375,117.625L-68.5,114.918C-69.375,112.437 -69.375,112.437 -69.375,109.437L-71.268,109.501C-74.137,109.585 -77.005,109.636 -79.875,109.688L-82.852,109.789C-90.57,109.892 -96.008,108.539 -101.75,103.25C-104.383,98.694 -105.824,94.321 -105,89.031C-103.333,83.35 -100.725,79.467 -95.554,76.334C-92.924,75.252 -90.793,75.118 -87.953,75.023L-84.848,74.906L-81.625,74.812L-78.355,74.695C-75.695,74.601 -73.036,74.516 -70.375,74.438C-69.674,72.86 -68.989,71.275 -68.313,69.688L-67.152,67.016C-66.313,64.231 -66.261,63.087 -67.375,60.438C-69.106,58.595 -70.833,56.894 -72.688,55.187C-78.155,49.917 -82.344,45.252 -82.875,37.438C-82.607,32.893 -81.038,29.11 -78.375,25.438C-74.1,22.035 -70.516,20.301 -65.063,20.188L-62.824,20.109C-55.232,21.127 -50.953,26.683 -46.143,32.051C-43.145,35.473 -43.145,35.473 -38.973,36.516L-36.375,35.438L-32.063,33.875L-28.375,32.438L-28.347,30.545C-28.293,27.675 -28.209,24.807 -28.125,21.937L-28.082,18.961C-27.874,12.713 -27.097,7.602 -23.375,2.437C-16.174,-3.413 -8.39,-3.884 0,0ZM-10.303,44.459C-36.581,44.459 -57.916,65.793 -57.916,92.071C-57.916,118.349 -36.581,139.684 -10.303,139.684C15.975,139.684 37.309,118.349 37.309,92.071C37.309,65.793 15.975,44.459 -10.303,44.459ZM-10.303,61.02C6.834,61.02 20.748,74.934 20.748,92.071C20.748,109.209 6.834,123.123 -10.303,123.123C-27.441,123.123 -41.355,109.209 -41.355,92.071C-41.355,74.934 -27.441,61.02 -10.303,61.02ZM-18.584,73.605L-18.584,92.071C-18.584,94.268 -17.711,96.374 -16.159,97.927L-6.361,107.724C-3.13,110.955 2.117,110.955 5.349,107.724C8.581,104.492 8.581,99.245 5.349,96.014L-2.023,88.642L-2.023,73.605C-2.023,69.035 -5.733,65.325 -10.303,65.325C-14.874,65.325 -18.584,69.035 -18.584,73.605Z" style="fill:white;"/>
            </g>
        </g>
    </g>
</svg>
