<?xml version="1.0" encoding="UTF-8" standalone="no"?>
<!DOCTYPE svg PUBLIC "-//W3C//DTD SVG 1.1//EN" "http://www.w3.org/Graphics/SVG/1.1/DTD/svg11.dtd">
<svg width="100%" height="100%" viewBox="0 0 472 326" version="1.1" xmlns="http://www.w3.org/2000/svg" xmlns:xlink="http://www.w3.org/1999/xlink" xml:space="preserve" xmlns:serif="http://www.serif.com/" style="fill-rule:evenodd;clip-rule:evenodd;stroke-linejoin:round;stroke-miterlimit:2;">
    <g transform="matrix(0.721888,0,0,1.05393,-840.15,-373.034)">
        <path d="M1337.83,357.892L1337.83,354.835L1381.25,354.835L1381.25,357.892C1377.63,357.967 1374.45,358.522 1371.71,359.56C1368.98,360.598 1366.83,362.108 1365.26,364.091C1363.69,366.074 1362.91,368.456 1362.91,371.235L1364.45,435.003L1359.42,435.003L1276.46,368.622L1277.68,413.265C1277.79,416.045 1278.12,418.389 1278.66,420.298C1279.2,422.207 1280.17,423.866 1281.58,425.274C1282.99,426.682 1285,427.794 1287.62,428.61C1290.25,429.425 1293.64,429.963 1297.81,430.222L1297.81,433.28L1254.71,433.28L1254.71,430.222C1260.34,429.926 1264.52,428.888 1267.25,427.109C1269.99,425.33 1271.68,423.115 1272.33,420.465C1272.98,417.815 1273.19,414.489 1272.98,410.486L1271.84,364.953C1268.75,362.655 1265.75,360.904 1262.83,359.699C1259.91,358.495 1256.88,357.892 1253.74,357.892L1252.76,357.892L1252.76,354.835L1286.29,354.835L1359.42,413.265L1358.28,374.182C1358.28,371.18 1357.84,368.632 1356.94,366.537C1356.05,364.443 1354.55,362.748 1352.44,361.451C1350.92,360.413 1348.74,359.551 1345.9,358.865C1343.06,358.18 1340.37,357.855 1337.83,357.892ZM1366.24,357.892L1348.46,357.892C1351.17,358.522 1353.37,359.393 1355.08,360.505C1356.78,361.617 1358.23,363.137 1359.42,365.064C1360.66,361.766 1362.93,359.375 1366.24,357.892ZM1353.49,421.549L1280.36,363.118C1278.85,361.784 1277.05,360.58 1274.96,359.505C1272.88,358.43 1269.94,357.892 1266.16,357.892L1262.5,357.892C1265.53,358.634 1267.89,359.532 1269.57,360.589C1271.24,361.645 1273.6,363.415 1276.63,365.898L1359.99,432.39C1359.93,431.315 1359.86,430.268 1359.78,429.249C1359.7,428.23 1359.53,427.47 1359.26,426.97C1358.99,426.469 1358.47,425.849 1357.71,425.107C1356.96,424.366 1355.55,423.18 1353.49,421.549ZM1264.7,430.222L1281.82,430.222C1279.44,428.962 1277.75,427.794 1276.75,426.72C1275.75,425.645 1274.9,424.144 1274.19,422.216C1273.49,423.958 1272.41,425.469 1270.95,426.747C1269.49,428.026 1267.4,429.184 1264.7,430.222Z" style="fill:white;fill-rule:nonzero;"/>
        <path d="M1377.33,409.374C1377.33,404.63 1378.96,400.293 1382.24,396.364C1385.51,392.436 1389.98,389.35 1395.63,387.108C1401.29,384.865 1407.55,383.744 1414.42,383.744C1421.13,383.744 1427.26,384.838 1432.81,387.024C1438.35,389.211 1442.72,392.232 1445.91,396.086C1449.11,399.941 1450.7,404.222 1450.7,408.929C1450.7,412.524 1449.74,415.925 1447.82,419.131C1445.9,422.337 1443.25,425.098 1439.87,427.414C1436.48,429.731 1432.6,431.519 1428.22,432.779C1423.84,434.04 1419.13,434.67 1414.1,434.67C1407.33,434.67 1401.15,433.613 1395.55,431.501C1389.95,429.388 1385.51,426.414 1382.24,422.578C1378.96,418.742 1377.33,414.34 1377.33,409.374ZM1406.14,432.501C1399.11,429.573 1393.83,426.108 1390.31,422.105C1386.8,418.102 1385.04,413.71 1385.04,408.929C1385.04,405.297 1385.88,402.109 1387.55,399.367C1389.23,396.624 1391.44,394.261 1394.17,392.278C1396.9,390.295 1400.32,388.247 1404.44,386.135C1398.97,387.469 1394.4,389.341 1390.72,391.75C1387.04,394.159 1384.33,396.911 1382.6,400.006C1380.87,403.101 1380.01,406.372 1380.01,409.819C1380.01,412.339 1380.57,414.822 1381.71,417.268C1382.85,419.714 1384.51,421.92 1386.7,423.884C1388.89,425.849 1391.61,427.572 1394.86,429.055C1398.11,430.537 1401.87,431.686 1406.14,432.501ZM1397.46,406.205C1397.46,414.099 1399.13,420.298 1402.49,424.801C1405.84,429.305 1410.2,431.556 1415.56,431.556C1418.26,431.556 1420.78,430.787 1423.11,429.249C1425.43,427.711 1427.29,425.432 1428.66,422.411C1430.05,419.39 1430.74,415.693 1430.74,411.32C1430.74,403.61 1429.23,397.597 1426.23,393.279C1423.23,388.961 1419.07,386.802 1413.77,386.802C1408.63,386.802 1404.63,388.424 1401.76,391.667C1398.89,394.91 1397.46,399.756 1397.46,406.205ZM1426.11,429.61C1430.17,428.091 1433.28,425.682 1435.44,422.383C1437.61,419.084 1438.69,415.044 1438.69,410.263C1438.69,398.477 1433.39,390.786 1422.78,387.191C1426.57,389.786 1429.29,392.973 1430.94,396.754C1432.59,400.534 1433.41,405.612 1433.41,411.987C1433.41,416.027 1432.81,419.409 1431.59,422.133C1430.37,424.857 1428.54,427.35 1426.11,429.61Z" style="fill:white;fill-rule:nonzero;"/>
        <path d="M1526.81,395.141L1526.81,423.717C1526.81,425.719 1527.27,427.275 1528.19,428.387C1529.11,429.499 1530.65,430.074 1532.81,430.111C1533.68,430.111 1534.41,430.12 1535.01,430.139C1535.6,430.157 1536.25,430.185 1536.95,430.222L1536.95,433.28L1497.91,433.28L1497.91,430.222C1502.19,430.333 1504.97,429.907 1506.27,428.943C1507.57,427.98 1508.22,426.275 1508.22,423.829L1508.22,399.367C1508.22,391.991 1504.49,388.303 1497.02,388.303C1494.26,388.303 1491.03,388.952 1487.32,390.249C1483.61,391.546 1480.38,393.177 1477.62,395.141L1477.62,424.829C1477.62,427.016 1478.47,428.461 1480.18,429.166C1481.88,429.87 1484.52,430.222 1488.09,430.222L1488.09,433.28L1448.16,433.28L1448.16,430.222L1449.21,430.222C1451.86,430.222 1453.91,430.018 1455.34,429.61C1456.77,429.203 1457.71,428.526 1458.14,427.581C1458.57,426.636 1458.79,425.385 1458.79,423.829L1458.79,401.146C1458.79,398.477 1458.15,396.457 1456.88,395.086C1455.61,393.714 1452.86,392.473 1448.64,391.361L1448.64,389.471L1474.94,383.744L1477.62,383.744L1477.62,391.361C1481.95,388.878 1486.37,386.987 1490.89,385.69C1495.41,384.393 1499.83,383.744 1504.16,383.744C1507.08,383.744 1509.94,384.059 1512.73,384.689C1515.51,385.319 1518.02,386.255 1520.23,387.497C1522.45,388.739 1524.16,390.23 1525.35,391.972C1529.95,389.267 1534.53,387.219 1539.11,385.829C1543.68,384.439 1548.45,383.744 1553.43,383.744C1558.03,383.744 1562.03,384.309 1565.44,385.44C1568.85,386.57 1571.49,388.34 1573.36,390.749C1575.22,393.158 1576.16,396.105 1576.16,399.589L1576.16,424.829C1576.16,426.201 1576.47,427.257 1577.09,427.998C1577.71,428.739 1578.77,429.295 1580.26,429.666C1581.75,430.037 1583.81,430.222 1586.47,430.222L1586.47,433.28L1547.1,433.28L1547.1,430.222L1549.05,430.222C1552.08,430.222 1554.26,429.787 1555.58,428.916C1556.91,428.045 1557.57,426.534 1557.57,424.384L1557.57,400.478C1557.57,396.624 1556.8,393.631 1555.26,391.5C1553.72,389.369 1550.78,388.303 1546.45,388.303C1540.5,388.303 1533.95,390.582 1526.81,395.141ZM1516.17,422.105L1516.17,397.532C1516.17,393.863 1514.93,391.194 1512.44,389.526C1509.95,387.858 1506.38,387.191 1501.73,387.525C1505.57,388.34 1508.05,389.721 1509.15,391.667C1510.26,393.612 1510.82,396.513 1510.82,400.367L1510.82,424.607C1510.82,426.164 1510.56,427.359 1510.05,428.193C1509.53,429.027 1508.57,429.814 1507.16,430.556C1511.22,430.37 1513.74,429.638 1514.71,428.36C1515.69,427.081 1516.17,424.996 1516.17,422.105ZM1565.53,422.55L1565.53,397.865C1565.53,395.716 1565.16,393.89 1564.43,392.389C1563.7,390.888 1562.22,389.693 1560.01,388.803C1557.79,387.914 1554.54,387.488 1550.27,387.525C1554.22,388.451 1556.87,389.684 1558.22,391.222C1559.57,392.76 1560.25,395.086 1560.25,398.199L1560.25,421.66C1560.25,424.551 1560.06,426.543 1559.68,427.637C1559.3,428.73 1558.19,429.74 1556.35,430.667C1559,430.704 1561.02,430.352 1562.4,429.61C1563.78,428.869 1564.64,427.906 1565,426.72C1565.35,425.533 1565.53,424.144 1565.53,422.55ZM1466.99,422.939L1466.99,399.367C1466.99,396.624 1466.11,394.567 1464.35,393.195C1462.59,391.824 1460.31,391.138 1457.49,391.138C1456.9,391.138 1455.62,391.213 1453.68,391.361C1456.98,392.139 1459.1,393.372 1460.05,395.058C1461,396.744 1461.47,399.2 1461.47,402.424L1461.47,421.327C1461.47,424.292 1461.29,426.312 1460.94,427.387C1460.59,428.461 1459.65,429.407 1458.14,430.222C1462.09,430.185 1464.55,429.536 1465.53,428.276C1466.5,427.016 1466.99,425.237 1466.99,422.939Z" style="fill:white;fill-rule:nonzero;"/>
        <path d="M1601.29,390.249C1601.29,390.397 1601.64,390.935 1602.35,391.861C1603.05,392.788 1603.4,393.659 1603.4,394.474C1603.4,396.068 1602.44,397.486 1600.52,398.727C1598.6,399.969 1596.2,400.59 1593.34,400.59C1590.58,400.59 1588.38,400.099 1586.76,399.116C1585.14,398.134 1584.33,396.994 1584.33,395.697C1584.33,393.77 1585.69,391.88 1588.42,390.027C1591.16,388.173 1594.92,386.663 1599.71,385.496C1604.5,384.328 1609.79,383.744 1615.58,383.744C1619.8,383.744 1623.73,384.245 1627.39,385.245C1631.04,386.246 1633.95,387.766 1636.11,389.804C1638.28,391.843 1639.36,394.307 1639.36,397.198L1639.36,425.441C1639.36,427.702 1640.31,428.832 1642.2,428.832C1643.34,428.832 1644.72,428.221 1646.34,426.997L1649.34,429.388C1646.69,431.204 1644.24,432.576 1642,433.502C1639.75,434.429 1637.09,434.892 1634,434.892C1630.43,434.892 1627.64,434.345 1625.64,433.252C1623.64,432.159 1622.23,430.463 1621.42,428.165C1613.95,432.576 1606.57,434.781 1599.26,434.781C1594.07,434.781 1589.94,433.854 1586.88,432.001C1583.83,430.148 1582.3,427.794 1582.3,424.94C1582.3,422.383 1583.23,420.206 1585.1,418.408C1586.96,416.61 1589.43,415.017 1592.48,413.627C1595.54,412.237 1600.05,410.476 1606,408.345C1611.95,406.214 1616.85,404.389 1620.69,402.869L1620.69,394.474C1620.69,391.954 1619.85,390.045 1618.17,388.748C1616.5,387.451 1613.98,386.802 1610.62,386.802C1607.7,386.802 1605.42,387.163 1603.77,387.886C1602.12,388.609 1601.29,389.396 1601.29,390.249ZM1623.37,398.088L1623.37,420.048C1623.37,424.384 1624.04,427.618 1625.4,429.749C1626.75,431.881 1629.4,432.946 1633.35,432.946C1635.14,432.946 1636.57,432.798 1637.65,432.501C1634.41,432.168 1632.11,431.278 1630.75,429.833C1629.4,428.387 1628.73,426.126 1628.73,423.05L1628.73,397.532C1628.73,393.677 1627.93,391.018 1626.33,389.554C1624.73,388.09 1621.99,387.21 1618.09,386.913C1620.2,387.654 1621.61,388.729 1622.31,390.138C1623.02,391.546 1623.37,394.196 1623.37,398.088ZM1620.69,424.496L1620.69,406.65C1613.76,409.318 1608.93,411.727 1606.2,413.877C1603.47,416.027 1602.1,418.621 1602.1,421.66C1602.1,423.699 1602.91,425.274 1604.54,426.386C1606.16,427.498 1608.05,428.054 1610.22,428.054C1613.63,428.054 1617.12,426.868 1620.69,424.496ZM1606.4,432.168C1601.48,432.168 1597.54,431.482 1594.59,430.111C1591.64,428.739 1590.17,426.757 1590.17,424.162C1590.17,422.272 1590.89,420.484 1592.32,418.797C1593.76,417.111 1595.91,415.23 1598.77,413.154C1594.39,414.896 1591,416.675 1588.59,418.491C1586.18,420.308 1584.98,422.457 1584.98,424.94C1584.98,427.201 1586.42,429.082 1589.32,430.583C1592.21,432.084 1595.37,432.835 1598.77,432.835C1602.08,432.835 1604.62,432.613 1606.4,432.168ZM1598.77,397.087C1596.83,397.198 1595.34,396.939 1594.31,396.309C1593.28,395.679 1592.77,394.937 1592.77,394.085C1592.77,392.936 1593.23,391.908 1594.15,390.999C1595.07,390.091 1596.66,388.785 1598.94,387.08C1595.09,388.414 1592.14,389.749 1590.09,391.083C1588.03,392.417 1587.01,393.918 1587.01,395.586C1587.01,396.327 1587.56,397.022 1588.67,397.671C1589.78,398.32 1591.09,398.644 1592.61,398.644C1595.2,398.644 1597.26,398.125 1598.77,397.087Z" style="fill:white;fill-rule:nonzero;"/>
        <path d="M1690.95,359.616L1716.03,353.945L1719.36,353.945L1719.36,423.273C1719.36,425.237 1720.13,426.562 1721.67,427.248C1723.22,427.933 1725.88,428.276 1729.67,428.276L1729.67,431.223L1700.85,434.781L1700.85,428.276C1693.01,432.613 1685.05,434.781 1676.99,434.781C1672.5,434.781 1668.31,434.132 1664.41,432.835C1660.51,431.538 1657.16,429.712 1654.34,427.359C1651.53,425.005 1649.38,422.3 1647.89,419.242C1646.4,416.184 1645.66,412.969 1645.66,409.596C1645.66,404.741 1647.35,400.33 1650.73,396.364C1654.11,392.399 1658.69,389.304 1664.45,387.08C1670.21,384.856 1676.64,383.744 1683.73,383.744C1688.76,383.744 1694.47,384.541 1700.85,386.135L1700.85,372.458C1700.85,369.419 1700.3,367.195 1699.19,365.787C1698.08,364.379 1695.33,363.081 1690.95,361.895L1690.95,359.616ZM1697.36,361.117L1694.6,361.117C1698.66,362.34 1701.16,363.665 1702.11,365.092C1703.06,366.519 1703.53,368.418 1703.53,370.791L1703.53,432.001C1705.32,431.482 1706.63,430.871 1707.47,430.166C1708.31,429.462 1708.73,428.406 1708.73,426.997L1708.73,370.902C1708.73,367.566 1708,365.101 1706.54,363.508C1705.07,361.914 1702.02,361.117 1697.36,361.117ZM1700.85,424.273L1700.85,391.694C1698.96,390.138 1696.75,388.933 1694.24,388.081C1691.72,387.228 1689.16,386.802 1686.57,386.802C1682.73,386.802 1679.18,387.608 1675.93,389.22C1672.69,390.833 1670.13,393.26 1668.27,396.503C1666.4,399.746 1665.46,403.777 1665.46,408.595C1665.46,412.672 1666.3,416.203 1667.98,419.186C1669.66,422.17 1672.01,424.431 1675.04,425.969C1678.07,427.507 1681.54,428.276 1685.43,428.276C1691.01,428.276 1696.15,426.942 1700.85,424.273ZM1675.29,386.357C1670.74,387.024 1666.92,388.062 1663.84,389.471C1659.13,391.472 1655.37,394.344 1652.56,398.088C1649.75,401.831 1648.34,405.816 1648.34,410.041C1648.34,414.118 1649.57,417.908 1652.03,421.41C1654.49,424.913 1657.97,427.692 1662.46,429.749C1666.95,431.806 1671.96,432.835 1677.48,432.835C1681.27,432.835 1684.65,432.446 1687.62,431.667C1685.13,431.816 1683.57,431.89 1682.91,431.89C1679.34,431.89 1675.81,431.39 1672.32,430.389C1668.83,429.388 1665.65,427.915 1662.79,425.969C1659.92,424.023 1657.66,421.697 1656.01,418.992C1654.36,416.286 1653.53,413.34 1653.53,410.152C1653.53,400.256 1660.78,392.324 1675.29,386.357Z" style="fill:white;fill-rule:nonzero;"/>
        <path d="M1243.29,533.463L1234.19,517.562L1195.8,517.562L1190.44,527.014C1189.04,529.423 1188.34,531.925 1188.34,534.519C1188.34,537.002 1189.49,539.189 1191.79,541.079C1194.08,542.969 1197.29,543.97 1201.4,544.081L1201.4,547.139L1163.82,547.139L1163.82,544.081C1172.21,543.229 1178.97,538.281 1184.11,529.237L1212.2,479.98C1210.74,478.238 1209.19,477.061 1207.57,476.45C1205.95,475.838 1203.57,475.421 1200.43,475.199L1200.43,472.475L1219.91,467.916L1227.38,467.916L1264.96,533.574C1267.12,537.28 1269.29,539.791 1271.45,541.107C1273.62,542.423 1276.92,543.414 1281.35,544.081L1281.35,547.139L1233.14,547.139L1233.14,544.081C1237.31,543.785 1240.43,543.34 1242.51,542.747C1244.6,542.154 1245.64,541.005 1245.64,539.3C1245.64,537.818 1244.86,535.872 1243.29,533.463ZM1197.75,514.004L1232.16,514.004L1214.88,484.038L1197.75,514.004ZM1250.67,531.406L1221.69,481.092C1220.29,478.571 1218.83,476.783 1217.31,475.727C1215.8,474.671 1213.71,474.142 1211.06,474.142C1209.49,474.142 1208.22,474.217 1207.25,474.365C1209.84,475.069 1211.81,476.051 1213.13,477.311C1214.46,478.571 1215.71,480.258 1216.91,482.371L1245.64,532.684C1247.42,535.649 1248.32,537.966 1248.32,539.634C1248.32,540.709 1248.02,541.487 1247.42,541.969C1246.83,542.451 1245.64,543.155 1243.85,544.081L1245.64,544.081C1248.18,544.081 1250.14,543.618 1251.52,542.692C1252.9,541.765 1253.59,540.672 1253.59,539.411C1253.59,537.595 1252.62,534.927 1250.67,531.406ZM1172.51,544.081L1188.09,544.081C1184.68,542.265 1182.98,539.986 1182.98,537.243C1182.98,536.465 1183.03,535.853 1183.14,535.409C1181.68,537.262 1180.2,538.837 1178.72,540.134C1177.23,541.431 1175.16,542.747 1172.51,544.081Z" style="fill:white;fill-rule:nonzero;"/>
        <path d="M1322.15,473.475L1347.23,467.805L1350.56,467.805L1350.56,537.132C1350.56,539.096 1351.33,540.421 1352.87,541.107C1354.41,541.793 1357.08,542.136 1360.87,542.136L1360.87,545.082L1332.05,548.64L1332.05,542.136C1324.21,546.472 1316.25,548.64 1308.19,548.64C1303.7,548.64 1299.51,547.992 1295.61,546.694C1291.71,545.397 1288.36,543.572 1285.54,541.218C1282.73,538.865 1280.58,536.159 1279.09,533.101C1277.6,530.044 1276.86,526.828 1276.86,523.456C1276.86,518.6 1278.55,514.19 1281.93,510.224C1285.31,506.258 1289.89,503.163 1295.65,500.939C1301.41,498.716 1307.84,497.604 1314.93,497.604C1319.96,497.604 1325.67,498.401 1332.05,499.994L1332.05,486.318C1332.05,483.279 1331.5,481.055 1330.39,479.646C1329.28,478.238 1326.53,476.941 1322.15,475.755L1322.15,473.475ZM1328.56,474.976L1325.8,474.976C1329.86,476.199 1332.36,477.524 1333.31,478.951C1334.26,480.378 1334.73,482.278 1334.73,484.65L1334.73,545.86C1336.52,545.342 1337.83,544.73 1338.67,544.026C1339.51,543.322 1339.93,542.265 1339.93,540.857L1339.93,484.761C1339.93,481.425 1339.2,478.961 1337.74,477.367C1336.27,475.773 1333.22,474.976 1328.56,474.976ZM1332.05,538.133L1332.05,505.554C1330.16,503.997 1327.95,502.793 1325.44,501.94C1322.92,501.088 1320.37,500.661 1317.77,500.661C1313.93,500.661 1310.38,501.468 1307.13,503.08C1303.89,504.692 1301.33,507.12 1299.46,510.363C1297.6,513.606 1296.66,517.637 1296.66,522.455C1296.66,526.532 1297.5,530.062 1299.18,533.046C1300.86,536.029 1303.21,538.29 1306.24,539.828C1309.27,541.366 1312.74,542.136 1316.63,542.136C1322.2,542.136 1327.35,540.801 1332.05,538.133ZM1306.49,500.217C1301.94,500.884 1298.12,501.922 1295.04,503.33C1290.33,505.331 1286.57,508.204 1283.76,511.947C1280.94,515.691 1279.54,519.675 1279.54,523.9C1279.54,527.977 1280.77,531.767 1283.23,535.27C1285.69,538.772 1289.17,541.552 1293.66,543.609C1298.15,545.666 1303.16,546.694 1308.68,546.694C1312.46,546.694 1315.85,546.305 1318.82,545.527C1316.33,545.675 1314.77,545.749 1314.12,545.749C1310.54,545.749 1307.01,545.249 1303.52,544.248C1300.03,543.247 1296.85,541.774 1293.99,539.828C1291.12,537.883 1288.86,535.557 1287.21,532.851C1285.56,530.145 1284.73,527.199 1284.73,524.011C1284.73,514.115 1291.98,506.184 1306.49,500.217Z" style="fill:white;fill-rule:nonzero;"/>
        <path d="M1405.16,501.829L1405.16,498.549L1433.08,498.549L1433.08,501.829C1429.72,502.867 1426.94,504.275 1424.72,506.054C1422.5,507.833 1420.31,510.483 1418.14,514.004L1396.23,548.64L1389.73,548.64L1365.63,509.779C1363.79,506.814 1362.02,504.757 1360.31,503.608C1358.61,502.459 1356.32,501.866 1353.45,501.829L1353.45,498.549L1394.2,498.549L1394.2,501.607L1391.19,501.607C1389.19,501.607 1387.5,502.005 1386.12,502.802C1384.74,503.599 1384.05,504.516 1384.05,505.554C1384.05,506.221 1384.94,508.093 1386.73,511.169L1400.69,533.796L1409.7,519.786C1412.35,515.561 1413.68,512.336 1413.68,510.113C1413.68,508 1412.96,506.23 1411.53,504.803C1410.09,503.376 1407.97,502.385 1405.16,501.829ZM1424.47,501.607L1411.16,501.607C1414.41,503.163 1416.03,505.702 1416.03,509.223C1418.47,505.702 1421.28,503.163 1424.47,501.607ZM1391.36,546.583L1392.58,546.472L1394.2,544.304C1394.41,544.156 1394.52,543.655 1394.52,542.803C1394.52,542.247 1393.87,541.079 1392.58,539.3L1373.91,509.001C1372.39,506.48 1370.82,504.618 1369.2,503.413C1367.58,502.209 1365.44,501.607 1362.79,501.607L1361,501.607C1362.52,502.274 1363.82,503.265 1364.9,504.581C1365.98,505.897 1366.95,507.259 1367.82,508.667L1391.36,546.583Z" style="fill:white;fill-rule:nonzero;"/>
        <path d="M1491,533.351L1494.25,535.075C1491.81,538.188 1488.92,540.746 1485.56,542.747C1482.21,544.749 1478.52,546.231 1474.48,547.195C1470.45,548.158 1466.25,548.64 1461.86,548.64C1455.91,548.64 1450.38,547.658 1445.26,545.694C1440.15,543.729 1436.11,540.894 1433.13,537.188C1430.15,533.481 1428.66,529.274 1428.66,524.567C1428.66,520.861 1429.57,517.377 1431.38,514.115C1433.2,510.854 1435.71,507.981 1438.93,505.498C1442.15,503.015 1445.89,501.078 1450.13,499.688C1454.38,498.299 1458.91,497.604 1463.73,497.604C1468.6,497.604 1473.24,498.299 1477.65,499.688C1482.06,501.078 1485.56,502.996 1488.16,505.443C1490.06,507.222 1491.42,509.047 1492.26,510.919C1493.1,512.79 1493.76,515.042 1494.25,517.674L1445.22,517.674C1445.44,521.528 1446.4,524.79 1448.11,527.458C1449.81,530.127 1452.03,532.277 1454.76,533.907C1457.49,535.538 1460.4,536.706 1463.49,537.41C1466.57,538.114 1469.52,538.466 1472.33,538.466C1479.15,538.466 1485.37,536.761 1491,533.351ZM1476.63,514.115L1482.32,514.115C1482.15,509.964 1480.91,506.897 1478.58,504.914C1476.26,502.932 1472.36,501.607 1466.89,500.939C1470.36,502.014 1472.85,503.413 1474.36,505.137C1475.88,506.86 1476.63,509.483 1476.63,513.004L1476.63,514.115ZM1445.71,514.115L1474.04,514.115L1474.04,512.281C1474.04,510.131 1473.47,508.213 1472.33,506.527C1471.2,504.84 1469.64,503.543 1467.67,502.635C1465.69,501.727 1463.43,501.273 1460.89,501.273C1456.78,501.273 1453.29,502.524 1450.42,505.026C1447.55,507.527 1445.98,510.557 1445.71,514.115ZM1446.44,503.163C1436.32,508.649 1431.26,515.839 1431.26,524.734C1431.26,531.183 1434.28,536.456 1440.31,540.551C1446.35,544.647 1453.31,546.694 1461.21,546.694C1465.81,546.694 1470.43,546.055 1475.05,544.776C1479.68,543.498 1483.59,541.598 1486.78,539.078C1483.48,540.523 1480.11,541.7 1476.68,542.608C1473.24,543.516 1469.14,543.97 1464.38,543.97C1456.32,543.97 1449.59,542.043 1444.21,538.188C1438.83,534.334 1436.13,529.312 1436.13,523.122C1436.13,519.193 1437.03,515.672 1438.81,512.559C1440.6,509.445 1443.14,506.314 1446.44,503.163Z" style="fill:white;fill-rule:nonzero;"/>
        <path d="M1518.89,497.604L1518.89,504.998C1523.44,502.589 1527.65,500.754 1531.52,499.494C1535.38,498.234 1540,497.604 1545.36,497.604C1560.67,497.604 1568.33,502.811 1568.33,513.226L1568.33,538.577C1568.33,540.987 1569.16,542.506 1570.84,543.136C1572.52,543.766 1575.06,544.081 1578.47,544.081L1578.47,547.139L1539.35,547.139L1539.35,544.081C1542.81,544.081 1545.34,543.702 1546.94,542.942C1548.53,542.182 1549.33,540.579 1549.33,538.133L1549.33,511.28C1549.33,509.316 1548.88,507.657 1547.99,506.304C1547.1,504.952 1545.79,503.923 1544.06,503.219C1542.32,502.515 1540.21,502.162 1537.73,502.162C1534.64,502.162 1531.62,502.709 1528.67,503.803C1525.73,504.896 1522.46,506.555 1518.89,508.778L1518.89,538.133C1518.89,539.801 1519.3,541.079 1520.11,541.969C1520.92,542.858 1522.02,543.414 1523.4,543.637C1524.78,543.859 1526.77,544.007 1529.37,544.081L1529.37,547.139L1490.16,547.139L1490.16,544.081C1493.46,544.081 1496.01,543.776 1497.79,543.164C1499.58,542.553 1500.47,541.153 1500.47,538.967L1500.47,514.338C1500.47,511.892 1499.66,509.918 1498.03,508.417C1496.41,506.916 1493.79,505.776 1490.16,504.998L1490.16,503.163L1515.81,497.604L1518.89,497.604ZM1503.15,512.503L1503.15,538.022C1503.15,539.689 1502.97,540.894 1502.62,541.635C1502.27,542.376 1501.5,543.192 1500.31,544.081C1505.61,543.748 1508.26,541.728 1508.26,538.022L1508.26,511.502C1508.26,509.649 1507.3,508.065 1505.38,506.749C1503.46,505.433 1501.23,504.775 1498.68,504.775C1498.41,504.775 1497.93,504.813 1497.22,504.887C1496.52,504.961 1496.06,504.998 1495.84,504.998C1500.71,506.517 1503.15,509.019 1503.15,512.503ZM1552.01,510.724L1552.01,538.133C1552.01,539.282 1551.97,540.125 1551.89,540.662C1551.81,541.2 1551.59,541.719 1551.24,542.219C1550.89,542.719 1550.2,543.34 1549.17,544.081L1550.71,544.081C1553.53,544.081 1555.39,543.368 1556.31,541.941C1557.23,540.514 1557.69,538.374 1557.69,535.52L1557.69,510.947C1557.69,507.759 1556.66,505.331 1554.61,503.664C1552.55,501.996 1548.93,501.088 1543.73,500.939C1546.65,501.755 1548.76,502.932 1550.06,504.47C1551.36,506.008 1552.01,508.093 1552.01,510.724Z" style="fill:white;fill-rule:nonzero;"/>
        <path d="M1582.66,533.685L1582.66,502.051L1573.98,502.051L1573.98,499.216C1578.74,496.77 1582.31,494.889 1584.69,493.573C1587.07,492.257 1589.33,490.784 1591.47,489.153C1593.61,487.522 1595.43,485.817 1596.95,484.038L1601.25,484.038L1601.25,498.549L1621.38,498.549L1621.38,502.051L1601.25,502.051L1601.25,535.297C1601.25,537.744 1601.68,539.569 1602.55,540.773C1603.41,541.978 1604.88,542.58 1606.93,542.58C1608.88,542.58 1610.68,542.21 1612.33,541.468C1613.98,540.727 1616,539.578 1618.38,538.022L1621.38,540.19C1617.32,543.044 1613.6,545.166 1610.22,546.555C1606.84,547.945 1602.95,548.64 1598.57,548.64C1594.4,548.64 1591.16,548.01 1588.83,546.75C1586.5,545.49 1584.89,543.776 1584,541.607C1583.11,539.439 1582.66,536.798 1582.66,533.685ZM1590.62,492.6L1585.26,495.658L1585.26,532.573C1585.26,537.503 1586.19,541.089 1588.06,543.331C1589.93,545.573 1593.27,546.694 1598.08,546.694C1600.63,546.694 1603.17,546.416 1605.71,545.86C1600.79,545.972 1597.04,545.184 1594.47,543.498C1591.9,541.811 1590.62,539.004 1590.62,535.075L1590.62,492.6Z" style="fill:white;fill-rule:nonzero;"/>
        <path d="M1663.8,501.829L1663.8,498.549L1692.86,498.549L1692.86,536.409C1692.86,537.929 1693.25,539.059 1694.04,539.801C1694.82,540.542 1695.93,541.024 1697.36,541.246C1698.8,541.468 1700.73,541.58 1703.17,541.58L1703.9,541.58L1703.9,544.749L1674.27,548.64L1674.27,540.968C1665.34,546.083 1656.47,548.64 1647.65,548.64C1640.72,548.64 1635.2,547.232 1631.09,544.415C1626.98,541.598 1624.92,537.614 1624.92,532.462L1624.92,513.115C1624.92,510.224 1624.79,508.167 1624.52,506.944C1624.25,505.721 1623.33,504.664 1621.76,503.775C1620.19,502.885 1617.59,502.237 1613.96,501.829L1613.96,498.549L1643.67,498.549L1643.67,531.406C1643.67,534.222 1644.04,536.502 1644.77,538.244C1645.5,539.986 1646.72,541.292 1648.42,542.163C1650.12,543.034 1652.36,543.47 1655.12,543.47C1661.12,543.47 1667.51,541.431 1674.27,537.354L1674.27,510.724C1674.27,505.09 1670.78,502.125 1663.8,501.829ZM1682.23,539.967L1682.23,510.113C1682.23,507.518 1681.71,505.452 1680.68,503.914C1679.65,502.376 1677.41,501.607 1673.95,501.607C1673.84,501.607 1673.43,501.644 1672.73,501.718C1672.03,501.792 1671.59,501.829 1671.43,501.829C1673.6,502.755 1675.06,503.914 1675.81,505.304C1676.57,506.693 1676.95,508.463 1676.95,510.613L1676.95,545.86C1678.84,545.416 1680.2,544.758 1681.01,543.887C1681.82,543.016 1682.23,541.709 1682.23,539.967ZM1633.04,533.574L1633.04,508.556C1633.04,503.923 1630.39,501.607 1625.08,501.607C1624.98,501.607 1624.52,501.644 1623.7,501.718C1622.89,501.792 1622.4,501.829 1622.24,501.829C1624.52,503.015 1625.98,504.294 1626.63,505.665C1627.28,507.036 1627.6,508.76 1627.6,510.835L1627.6,531.406C1627.6,536.298 1629.32,540.125 1632.75,542.886C1636.19,545.647 1640.88,547.028 1646.84,547.028C1648.57,547.028 1650.25,546.954 1651.87,546.806C1645.75,546.472 1641.09,545.175 1637.87,542.914C1634.65,540.653 1633.04,537.54 1633.04,533.574Z" style="fill:white;fill-rule:nonzero;"/>
        <path d="M1729.35,497.604L1729.35,506.165C1733.52,502.941 1736.71,500.708 1738.93,499.466C1741.15,498.224 1743.83,497.604 1746.97,497.604C1749.67,497.604 1751.96,498.262 1753.83,499.577C1755.69,500.893 1756.63,502.552 1756.63,504.553C1756.63,506.629 1755.79,508.361 1754.11,509.751C1752.43,511.141 1750.32,511.836 1747.78,511.836C1746.64,511.836 1745.4,511.688 1744.05,511.391C1742.69,511.095 1741.56,510.706 1740.64,510.224C1740.1,509.927 1739.53,509.612 1738.93,509.279C1738.34,508.945 1737.81,508.686 1737.35,508.5C1736.89,508.315 1736.39,508.222 1735.85,508.222C1734.82,508.222 1733.81,508.491 1732.8,509.029C1731.8,509.566 1730.65,510.316 1729.35,511.28L1729.35,538.133C1729.35,540.06 1729.75,541.431 1730.53,542.247C1731.32,543.062 1732.53,543.572 1734.18,543.776C1735.83,543.979 1738.72,544.081 1742.83,544.081L1742.83,547.139L1699.24,547.139L1699.24,544.081L1701.43,544.081C1707.71,544.081 1710.85,542.376 1710.85,538.967L1710.85,514.004C1710.85,509.742 1706.98,506.814 1699.24,505.22L1699.24,503.33L1725.38,497.604L1729.35,497.604ZM1713.53,514.004L1713.53,539.3C1713.53,540.56 1713.23,541.496 1712.63,542.108C1712.04,542.719 1711.17,543.377 1710.04,544.081C1713.12,543.896 1715.34,543.331 1716.69,542.386C1718.05,541.441 1718.72,539.801 1718.72,537.466L1718.72,514.004C1718.72,510.817 1717.91,508.5 1716.29,507.055C1714.66,505.609 1712.09,504.887 1708.58,504.887C1708.31,504.887 1707.71,504.924 1706.79,504.998C1705.87,505.072 1705.25,505.109 1704.92,505.109C1710.66,506.814 1713.53,509.779 1713.53,514.004ZM1734.79,506.165C1736.25,506.165 1737.72,506.499 1739.18,507.166C1742.53,508.982 1745.34,509.89 1747.62,509.89C1750.43,509.89 1752.49,508.649 1753.79,506.165C1752.27,506.684 1751.16,506.944 1750.46,506.944C1748.84,506.944 1747.21,506.573 1745.59,505.832C1743.53,504.683 1741.83,504.108 1740.47,504.108C1739.18,504.108 1737.28,504.794 1734.79,506.165Z" style="fill:white;fill-rule:nonzero;"/>
        <path d="M1813.98,533.351L1817.23,535.075C1814.79,538.188 1811.9,540.746 1808.55,542.747C1805.19,544.749 1801.5,546.231 1797.47,547.195C1793.43,548.158 1789.23,548.64 1784.84,548.64C1778.89,548.64 1773.36,547.658 1768.25,545.694C1763.13,543.729 1759.09,540.894 1756.11,537.188C1753.13,533.481 1751.65,529.274 1751.65,524.567C1751.65,520.861 1752.55,517.377 1754.37,514.115C1756.18,510.854 1758.69,507.981 1761.91,505.498C1765.13,503.015 1768.87,501.078 1773.12,499.688C1777.36,498.299 1781.89,497.604 1786.71,497.604C1791.58,497.604 1796.22,498.299 1800.63,499.688C1805.04,501.078 1808.55,502.996 1811.14,505.443C1813.04,507.222 1814.4,509.047 1815.24,510.919C1816.08,512.79 1816.74,515.042 1817.23,517.674L1768.2,517.674C1768.42,521.528 1769.38,524.79 1771.09,527.458C1772.79,530.127 1775.01,532.277 1777.74,533.907C1780.47,535.538 1783.38,536.706 1786.47,537.41C1789.55,538.114 1792.5,538.466 1795.31,538.466C1802.13,538.466 1808.36,536.761 1813.98,533.351ZM1799.62,514.115L1805.3,514.115C1805.14,509.964 1803.89,506.897 1801.56,504.914C1799.24,502.932 1795.34,501.607 1789.88,500.939C1793.34,502.014 1795.83,503.413 1797.34,505.137C1798.86,506.86 1799.62,509.483 1799.62,513.004L1799.62,514.115ZM1768.69,514.115L1797.02,514.115L1797.02,512.281C1797.02,510.131 1796.45,508.213 1795.31,506.527C1794.18,504.84 1792.62,503.543 1790.65,502.635C1788.67,501.727 1786.41,501.273 1783.87,501.273C1779.76,501.273 1776.27,502.524 1773.4,505.026C1770.53,507.527 1768.96,510.557 1768.69,514.115ZM1769.42,503.163C1759.3,508.649 1754.24,515.839 1754.24,524.734C1754.24,531.183 1757.26,536.456 1763.29,540.551C1769.33,544.647 1776.29,546.694 1784.19,546.694C1788.79,546.694 1793.41,546.055 1798.03,544.776C1802.66,543.498 1806.57,541.598 1809.76,539.078C1806.46,540.523 1803.09,541.7 1799.66,542.608C1796.22,543.516 1792.12,543.97 1787.36,543.97C1779.3,543.97 1772.57,542.043 1767.19,538.188C1761.81,534.334 1759.11,529.312 1759.11,523.122C1759.11,519.193 1760.01,515.672 1761.79,512.559C1763.58,509.445 1766.12,506.314 1769.42,503.163Z" style="fill:white;fill-rule:nonzero;"/>
        <path d="M1320.49,660.999L1264.24,660.999L1264.24,657.941C1269.49,657.867 1273.38,657.579 1275.93,657.079C1278.47,656.579 1280.21,655.68 1281.16,654.383C1282.11,653.085 1282.58,651.047 1282.58,648.267L1282.58,596.341C1282.58,593.376 1282.18,591.171 1281.36,589.725C1280.55,588.28 1278.89,587.261 1276.37,586.667C1273.86,586.074 1269.81,585.722 1264.24,585.611L1264.24,582.553L1328.28,582.553C1336.34,582.553 1343.39,583.508 1349.42,585.417C1355.46,587.325 1360,589.864 1363.06,593.033C1366.12,596.202 1367.64,599.621 1367.64,603.291C1367.64,605.7 1366.94,608.044 1365.54,610.323C1364.13,612.603 1362.1,614.669 1359.45,616.522C1356.8,618.375 1353.59,619.96 1349.83,621.276C1346.07,622.591 1341.7,623.527 1336.72,624.083C1340.45,626.641 1345.05,630.254 1350.52,634.924L1358.55,641.429C1358.99,641.763 1359.53,642.179 1360.18,642.68C1360.83,643.18 1361.67,643.82 1362.69,644.598C1365.29,646.748 1367.48,648.517 1369.27,649.907C1371.05,651.297 1372.83,652.548 1374.59,653.66C1376.34,654.772 1378.06,655.671 1379.74,656.356C1381.42,657.042 1383.2,657.57 1385.1,657.941L1385.1,660.999L1369.84,660.999C1366.37,660.999 1363.1,660.47 1360.02,659.414C1356.93,658.358 1353.97,656.866 1351.13,654.939C1348.29,653.011 1345.05,650.472 1341.43,647.322L1330.07,637.426C1324.82,632.756 1320.91,629.522 1318.34,627.725C1315.77,625.927 1313.53,625.028 1311.64,625.028L1302.63,625.028L1302.63,648.601C1302.63,650.936 1303.06,652.77 1303.93,654.105C1304.79,655.439 1306.69,656.403 1309.61,656.996C1311.18,657.292 1313.1,657.533 1315.37,657.718C1317.65,657.904 1319.35,657.978 1320.49,657.941L1320.49,660.999ZM1285.18,595.896L1285.18,650.769C1285.18,654.253 1283.31,656.644 1279.58,657.941C1286.67,657.83 1290.21,655.958 1290.21,652.326L1290.21,596.23C1290.21,593.376 1289.98,591.217 1289.52,589.753C1289.06,588.289 1288.01,587.205 1286.36,586.501C1284.71,585.796 1282.18,585.5 1278.77,585.611C1281.58,586.464 1283.35,587.585 1284.08,588.975C1284.81,590.365 1285.18,592.672 1285.18,595.896ZM1302.63,596.897L1302.63,621.971L1315.78,621.971C1320.22,621.971 1324.6,621.479 1328.93,620.497C1333.26,619.515 1336.53,618.283 1338.75,616.8C1343.19,613.946 1345.4,609.591 1345.4,603.735C1345.4,596.804 1341.97,591.708 1335.1,588.447C1332.66,587.298 1330.12,586.538 1327.47,586.167C1324.82,585.796 1321.43,585.611 1317.32,585.611C1313.15,585.611 1310,585.991 1307.87,586.751C1305.73,587.511 1304.32,588.66 1303.64,590.198C1302.97,591.736 1302.63,593.969 1302.63,596.897ZM1323.82,625.028L1317.16,625.028C1319.11,626.029 1321.37,627.53 1323.94,629.532C1326.51,631.533 1329.74,634.239 1333.64,637.648C1337.53,641.058 1341.45,644.524 1345.4,648.045C1349.03,651.195 1352.39,653.614 1355.47,655.3C1358.55,656.986 1361.29,658.071 1363.67,658.552C1366.05,659.034 1368.59,659.312 1371.3,659.386C1367.94,658.274 1364.72,656.745 1361.64,654.8C1358.55,652.854 1355.24,650.389 1351.7,647.405C1348.15,644.422 1344.5,641.281 1340.74,637.982C1336.98,634.683 1333.1,631.57 1329.09,628.642C1328.55,628.123 1327.89,627.539 1327.1,626.891C1326.32,626.242 1325.22,625.621 1323.82,625.028ZM1330.96,621.693C1338.21,621.063 1343.78,619.209 1347.68,616.133C1351.57,613.057 1353.52,608.887 1353.52,603.624C1353.52,598.509 1351.79,594.442 1348.33,591.421C1344.86,588.4 1339.94,586.575 1333.56,585.945C1338.42,587.65 1342.06,589.938 1344.47,592.811C1346.88,595.683 1348.08,599.51 1348.08,604.291C1348.08,609.332 1346.66,613.112 1343.82,615.633C1340.98,618.153 1336.69,620.173 1330.96,621.693Z" style="fill:white;fill-rule:nonzero;"/>
        <path d="M1443.83,647.211L1447.08,648.934C1444.64,652.048 1441.75,654.605 1438.39,656.607C1435.04,658.608 1431.35,660.09 1427.31,661.054C1423.28,662.018 1419.08,662.5 1414.69,662.5C1408.74,662.5 1403.21,661.517 1398.09,659.553C1392.98,657.589 1388.94,654.753 1385.96,651.047C1382.98,647.341 1381.5,643.134 1381.5,638.427C1381.5,634.72 1382.4,631.236 1384.21,627.975C1386.03,624.713 1388.54,621.841 1391.76,619.358C1394.98,616.874 1398.72,614.938 1402.96,613.548C1407.21,612.158 1411.74,611.463 1416.56,611.463C1421.43,611.463 1426.07,612.158 1430.48,613.548C1434.89,614.938 1438.39,616.856 1440.99,619.302C1442.88,621.081 1444.25,622.906 1445.09,624.778C1445.93,626.65 1446.59,628.901 1447.08,631.533L1398.05,631.533C1398.27,635.388 1399.23,638.649 1400.93,641.318C1402.64,643.986 1404.86,646.136 1407.59,647.767C1410.32,649.398 1413.23,650.565 1416.32,651.269C1419.4,651.974 1422.35,652.326 1425.16,652.326C1431.98,652.326 1438.2,650.621 1443.83,647.211ZM1429.46,627.975L1435.15,627.975C1434.99,623.824 1433.74,620.757 1431.41,618.774C1429.09,616.791 1425.19,615.466 1419.73,614.799C1423.19,615.874 1425.68,617.273 1427.19,618.996C1428.71,620.72 1429.46,623.342 1429.46,626.863L1429.46,627.975ZM1398.54,627.975L1426.87,627.975L1426.87,626.14C1426.87,623.991 1426.3,622.072 1425.16,620.386C1424.03,618.7 1422.47,617.402 1420.5,616.494C1418.52,615.586 1416.26,615.132 1413.72,615.132C1409.61,615.132 1406.12,616.383 1403.25,618.885C1400.38,621.387 1398.81,624.417 1398.54,627.975ZM1399.27,617.023C1389.15,622.508 1384.09,629.698 1384.09,638.594C1384.09,645.043 1387.11,650.315 1393.14,654.41C1399.18,658.506 1406.14,660.554 1414.04,660.554C1418.64,660.554 1423.26,659.914 1427.88,658.636C1432.51,657.357 1436.42,655.458 1439.61,652.937C1436.31,654.383 1432.94,655.559 1429.51,656.468C1426.07,657.376 1421.97,657.83 1417.21,657.83C1409.15,657.83 1402.42,655.902 1397.04,652.048C1391.65,648.193 1388.96,643.171 1388.96,636.981C1388.96,633.053 1389.86,629.532 1391.64,626.418C1393.43,623.305 1395.97,620.173 1399.27,617.023Z" style="fill:white;fill-rule:nonzero;"/>
        <path d="M1471.72,611.463L1471.72,618.857C1476.27,616.448 1480.48,614.613 1484.35,613.353C1488.21,612.093 1492.83,611.463 1498.18,611.463C1513.5,611.463 1521.15,616.67 1521.15,627.085L1521.15,652.437C1521.15,654.846 1521.99,656.366 1523.67,656.996C1525.35,657.626 1527.89,657.941 1531.3,657.941L1531.3,660.999L1492.18,660.999L1492.18,657.941C1495.64,657.941 1498.17,657.561 1499.77,656.801C1501.36,656.041 1502.16,654.438 1502.16,651.992L1502.16,625.14C1502.16,623.175 1501.72,621.517 1500.82,620.164C1499.93,618.811 1498.62,617.782 1496.89,617.078C1495.15,616.374 1493.04,616.022 1490.56,616.022C1487.47,616.022 1484.45,616.569 1481.51,617.662C1478.56,618.755 1475.3,620.414 1471.72,622.638L1471.72,651.992C1471.72,653.66 1472.13,654.939 1472.94,655.828C1473.75,656.718 1474.85,657.274 1476.23,657.496C1477.61,657.718 1479.6,657.867 1482.19,657.941L1482.19,660.999L1442.99,660.999L1442.99,657.941C1446.29,657.941 1448.84,657.635 1450.62,657.023C1452.41,656.412 1453.3,655.013 1453.3,652.826L1453.3,628.197C1453.3,625.751 1452.49,623.777 1450.86,622.276C1449.24,620.775 1446.62,619.636 1442.99,618.857L1442.99,617.023L1468.64,611.463L1471.72,611.463ZM1455.98,626.363L1455.98,651.881C1455.98,653.549 1455.8,654.753 1455.45,655.495C1455.1,656.236 1454.33,657.051 1453.14,657.941C1458.44,657.607 1461.09,655.587 1461.09,651.881L1461.09,625.362C1461.09,623.509 1460.13,621.924 1458.21,620.608C1456.29,619.293 1454.06,618.635 1451.51,618.635C1451.24,618.635 1450.76,618.672 1450.05,618.746C1449.35,618.82 1448.89,618.857 1448.67,618.857C1453.54,620.377 1455.98,622.879 1455.98,626.363ZM1504.84,624.584L1504.84,651.992C1504.84,653.141 1504.8,653.984 1504.72,654.522C1504.64,655.059 1504.42,655.578 1504.07,656.078C1503.72,656.579 1503.03,657.2 1502,657.941L1503.54,657.941C1506.36,657.941 1508.22,657.227 1509.14,655.8C1510.06,654.373 1510.52,652.233 1510.52,649.379L1510.52,624.806C1510.52,621.618 1509.49,619.191 1507.44,617.523C1505.38,615.855 1501.76,614.947 1496.56,614.799C1499.48,615.614 1501.59,616.791 1502.89,618.329C1504.19,619.867 1504.84,621.952 1504.84,624.584Z" style="fill:white;fill-rule:nonzero;"/>
        <path d="M1535.49,647.544L1535.49,615.911L1526.81,615.911L1526.81,613.075C1531.57,610.629 1535.14,608.748 1537.52,607.432C1539.9,606.117 1542.16,604.643 1544.3,603.013C1546.44,601.382 1548.26,599.677 1549.78,597.898L1554.08,597.898L1554.08,612.408L1574.21,612.408L1574.21,615.911L1554.08,615.911L1554.08,649.157C1554.08,651.603 1554.51,653.428 1555.38,654.633C1556.25,655.837 1557.71,656.44 1559.76,656.44C1561.71,656.44 1563.51,656.069 1565.16,655.328C1566.81,654.587 1568.83,653.438 1571.21,651.881L1574.21,654.049C1570.15,656.903 1566.43,659.025 1563.05,660.415C1559.67,661.805 1555.79,662.5 1551.4,662.5C1547.24,662.5 1543.99,661.87 1541.66,660.609C1539.34,659.349 1537.73,657.635 1536.83,655.467C1535.94,653.299 1535.49,650.658 1535.49,647.544ZM1543.45,606.459L1538.09,609.517L1538.09,646.433C1538.09,651.362 1539.02,654.948 1540.89,657.19C1542.76,659.433 1546.1,660.554 1550.91,660.554C1553.46,660.554 1556,660.276 1558.54,659.72C1553.62,659.831 1549.87,659.043 1547.3,657.357C1544.73,655.671 1543.45,652.863 1543.45,648.934L1543.45,606.459Z" style="fill:white;fill-rule:nonzero;"/>
        <path d="M1588.38,617.968C1588.38,618.116 1588.74,618.653 1589.44,619.58C1590.14,620.507 1590.5,621.378 1590.5,622.193C1590.5,623.787 1589.53,625.204 1587.61,626.446C1585.69,627.688 1583.3,628.308 1580.43,628.308C1577.67,628.308 1575.48,627.817 1573.86,626.835C1572.23,625.853 1571.42,624.713 1571.42,623.416C1571.42,621.489 1572.79,619.598 1575.52,617.745C1578.25,615.892 1582.01,614.382 1586.8,613.214C1591.59,612.047 1596.88,611.463 1602.67,611.463C1606.89,611.463 1610.83,611.963 1614.48,612.964C1618.13,613.965 1621.04,615.484 1623.2,617.523C1625.37,619.561 1626.45,622.026 1626.45,624.917L1626.45,653.16C1626.45,655.42 1627.4,656.551 1629.29,656.551C1630.43,656.551 1631.81,655.939 1633.43,654.716L1636.44,657.107C1633.78,658.923 1631.34,660.294 1629.09,661.221C1626.84,662.148 1624.18,662.611 1621.1,662.611C1617.52,662.611 1614.74,662.064 1612.74,660.971C1610.73,659.877 1609.33,658.182 1608.51,655.884C1601.05,660.294 1593.66,662.5 1586.36,662.5C1581.16,662.5 1577.04,661.573 1573.98,659.72C1570.92,657.867 1569.39,655.513 1569.39,652.659C1569.39,650.102 1570.33,647.924 1572.19,646.127C1574.06,644.329 1576.52,642.735 1579.58,641.346C1582.63,639.956 1587.14,638.195 1593.09,636.064C1599.05,633.933 1603.94,632.107 1607.78,630.588L1607.78,622.193C1607.78,619.673 1606.94,617.764 1605.27,616.467C1603.59,615.169 1601.07,614.521 1597.72,614.521C1594.8,614.521 1592.51,614.882 1590.86,615.605C1589.21,616.328 1588.38,617.115 1588.38,617.968ZM1610.46,625.807L1610.46,647.767C1610.46,652.103 1611.14,655.337 1612.49,657.468C1613.84,659.599 1616.5,660.665 1620.45,660.665C1622.23,660.665 1623.66,660.517 1624.75,660.22C1621.5,659.887 1619.2,658.997 1617.85,657.552C1616.5,656.106 1615.82,653.845 1615.82,650.769L1615.82,625.251C1615.82,621.396 1615.02,618.737 1613.42,617.273C1611.83,615.809 1609.08,614.928 1605.19,614.632C1607.3,615.373 1608.7,616.448 1609.41,617.857C1610.11,619.265 1610.46,621.915 1610.46,625.807ZM1607.78,652.214L1607.78,634.368C1600.86,637.037 1596.03,639.446 1593.3,641.596C1590.56,643.745 1589.2,646.34 1589.2,649.379C1589.2,651.418 1590.01,652.993 1591.63,654.105C1593.26,655.217 1595.15,655.773 1597.31,655.773C1600.72,655.773 1604.21,654.587 1607.78,652.214ZM1593.5,659.887C1588.57,659.887 1584.64,659.201 1581.69,657.83C1578.74,656.458 1577.27,654.475 1577.27,651.881C1577.27,649.991 1577.98,648.202 1579.42,646.516C1580.85,644.83 1583,642.949 1585.87,640.873C1581.49,642.615 1578.09,644.394 1575.68,646.21C1573.27,648.026 1572.07,650.176 1572.07,652.659C1572.07,654.92 1573.52,656.801 1576.41,658.302C1579.31,659.803 1582.46,660.554 1585.87,660.554C1589.17,660.554 1591.71,660.331 1593.5,659.887ZM1585.87,624.806C1583.92,624.917 1582.43,624.658 1581.4,624.028C1580.38,623.398 1579.86,622.656 1579.86,621.804C1579.86,620.655 1580.32,619.626 1581.24,618.718C1582.16,617.81 1583.76,616.504 1586.03,614.799C1582.19,616.133 1579.24,617.467 1577.18,618.802C1575.13,620.136 1574.1,621.637 1574.1,623.305C1574.1,624.046 1574.65,624.741 1575.76,625.39C1576.87,626.038 1578.18,626.363 1579.7,626.363C1582.3,626.363 1584.35,625.844 1585.87,624.806Z" style="fill:white;fill-rule:nonzero;"/>
        <path d="M1641.6,652.326L1641.6,599.621C1641.6,596.804 1640.95,594.599 1639.65,593.005C1638.35,591.412 1635.35,590.022 1630.64,588.836L1630.64,586.667L1657.02,580.719L1660.19,580.719L1660.19,650.269C1660.19,653.16 1660.66,655.161 1661.61,656.273C1662.56,657.385 1664.98,657.941 1668.87,657.941L1671.07,657.941L1671.07,660.999L1630.64,660.999L1630.64,657.941L1632.59,657.941C1635.78,657.941 1638.08,657.477 1639.49,656.551C1640.9,655.624 1641.6,654.216 1641.6,652.326ZM1649.56,650.046L1649.56,599.955C1649.56,597.323 1649.38,595.22 1649.03,593.645C1648.68,592.07 1647.67,590.754 1646.03,589.697C1644.37,588.641 1641.74,588.113 1638.11,588.113C1636.33,588.113 1634.89,588.15 1633.81,588.224C1638.79,589.188 1641.78,590.615 1642.78,592.505C1643.78,594.395 1644.28,596.879 1644.28,599.955L1644.28,651.992C1644.28,654.512 1643.17,656.495 1640.95,657.941C1644.74,657.83 1647.12,657.116 1648.1,655.8C1649.07,654.485 1649.56,652.567 1649.56,650.046Z" style="fill:white;fill-rule:nonzero;"/>
        <path d="M1666.17,658.274L1666.17,643.708L1670.55,643.708C1674.66,648.712 1678.96,652.483 1683.45,655.022C1687.95,657.561 1692.33,658.83 1696.6,658.83C1699.36,658.83 1701.83,658.219 1703.99,656.996C1706.15,655.773 1707.24,654.383 1707.24,652.826C1707.24,650.788 1706.42,649.379 1704.8,648.601C1698.69,645.821 1692.82,643.69 1687.19,642.207C1672.31,638.427 1664.87,633.034 1664.87,626.029C1664.87,621.878 1667.19,618.412 1671.85,615.633C1676.5,612.853 1682.78,611.463 1690.68,611.463C1694.68,611.463 1698.42,611.75 1701.88,612.325C1705.34,612.899 1709.18,613.724 1713.4,614.799L1714.22,627.975L1710.24,627.975C1705.86,623.527 1701.51,620.173 1697.21,617.912C1692.91,615.651 1688.68,614.521 1684.51,614.521C1681.91,614.521 1679.76,615.105 1678.06,616.272C1676.35,617.44 1675.5,618.728 1675.5,620.136C1675.5,621.952 1676.56,623.388 1678.66,624.445C1680.78,625.501 1685.21,627.067 1691.98,629.142C1698.74,631.218 1704.67,633.219 1709.75,635.147C1712.94,636.296 1715.49,637.908 1717.38,639.983C1719.28,642.059 1720.22,644.32 1720.22,646.766C1720.22,649.62 1719.02,652.252 1716.61,654.661C1714.2,657.07 1710.88,658.979 1706.63,660.387C1702.38,661.795 1697.61,662.5 1692.3,662.5C1684.78,662.5 1676.07,661.091 1666.17,658.274ZM1669.17,648.601L1669.17,655.55C1671.87,656.366 1676.37,657.348 1682.64,658.497C1679.29,656.903 1676.8,655.476 1675.17,654.216C1673.55,652.956 1671.55,651.084 1669.17,648.601ZM1708.94,655.661C1710.4,654.735 1711.48,653.892 1712.19,653.132C1712.89,652.372 1713.24,651.343 1713.24,650.046C1713.24,646.08 1709.02,642.93 1700.58,640.595C1693.01,638.445 1687.03,636.546 1682.64,634.896C1678.26,633.247 1675.09,631.542 1673.15,629.782C1671.2,628.021 1670.22,625.825 1670.22,623.194C1670.22,621.6 1670.87,619.821 1672.17,617.857C1670.77,619.043 1669.64,620.219 1668.8,621.387C1667.97,622.554 1667.55,623.991 1667.55,625.695C1667.55,629.217 1669.38,632.07 1673.07,634.257C1676.74,636.444 1682.21,638.658 1689.46,640.901C1696.71,643.143 1701.93,644.978 1705.13,646.405C1708.32,647.832 1709.91,649.805 1709.91,652.326C1709.91,653.252 1709.59,654.364 1708.94,655.661ZM1708.29,623.082L1707.56,616.689C1703.99,615.688 1701.2,615.003 1699.2,614.632C1697.2,614.261 1694.28,614.076 1690.43,614.076C1694.49,615.04 1697.73,616.161 1700.13,617.44C1702.54,618.718 1705.26,620.599 1708.29,623.082Z" style="fill:white;fill-rule:nonzero;"/>
    </g>
</svg>
