<?xml version="1.0" encoding="UTF-8" standalone="no"?>
<!DOCTYPE svg PUBLIC "-//W3C//DTD SVG 1.1//EN" "http://www.w3.org/Graphics/SVG/1.1/DTD/svg11.dtd">
<svg width="100%" height="100%" viewBox="0 0 214 231" version="1.1" xmlns="http://www.w3.org/2000/svg" xmlns:xlink="http://www.w3.org/1999/xlink" xml:space="preserve" xmlns:serif="http://www.serif.com/" style="fill-rule:evenodd;clip-rule:evenodd;stroke-linecap:square;stroke-linejoin:round;stroke-miterlimit:1.5;">
    <g transform="matrix(1,0,0,1,-615.679,-7682.47)">
        <g transform="matrix(1,0,0,1,-15665.7,7549.47)">
            <g transform="matrix(1,0,0,1,1.27329e-11,-8)">
                <g transform="matrix(1.10938,0,0,1.1013,11731.8,-1357.57)">
                    <circle cx="4197.29" cy="1473.29" r="96.289" style="fill:rgb(47,111,102);"/>
                </g>
                <g transform="matrix(1.00247,0,0,0.99517,12180.6,-1201.21)">
                    <circle cx="4197.29" cy="1473.29" r="96.289" style="fill:rgb(47,111,102);stroke:white;stroke-width:6.01px;"/>
                </g>
                <g transform="matrix(0.135033,0,0,0.135033,16542,-543.812)">
                    <path d="M-1283,6012L-1283,6015L-1280,6017L-1280,6019L-1282,6020L-1284,6022L-1284,6027L-1281,6029L-1266,6019L-1246,6048L-1248,6069L-1089,6074L-927,6237C-927,6237 -892.968,6214.25 -853,6230L-852,6234L-844,6238L-841,6223L-841,6209L-840,6195C-840,6195 -836.16,6148.76 -766,6117L-767,6115L-765,6114L-768,6109L-771,6109L-775,6106L-776,6103L-775,6101L-770,6102L-766,6099L-766,6096L-771,6087L-773,6089L-775,6089L-773,6086L-773,6083L-775,6080L-774,6078L-772,6080L-771,6082L-765,6081L-765,6083L-769,6084L-765,6087L-765,6089L-763,6089L-764,6092L-759,6097L-757,6098L-762,6100L-765,6104L-769,6104L-770,6107L-767,6108L-765,6106L-763,6109L-761,6109L-757,6113L-743,6099L-744,6095L-741,6097L-736,6094L-735,6093L-739,6087L-733,6091L-729,6087L-732,6076L-725,6084L-727,6090L-722,6091L-720,6088L-717,6090L-714,6087L-713,6088L-704,6083L-670,6084L-673,6081L-672,6080L-674,6077L-676,6078L-679,6078L-674,6073L-670,6073L-669,6069L-667,6074L-665,6078L-666,6082L-667,6084L-661,6085L-659,6085L-659,6067L-656,6073L-655,6076L-653,6071L-652,6077L-655,6078L-654,6080C-654,6080 -652.636,6079.88 -653,6081C-653.364,6082.12 -653,6083 -653,6083L-642,6083L-641,6081L-644,6079L-642,6076L-643,6072L-640,6069L-639,6070L-640,6073L-640,6076L-639,6076L-638,6073L-636,6071L-635,6069L-636,6067L-636,6064.89L-634,6066L-630,6064.89L-630,6061L-628,6056L-628,6060L-625,6060L-625,6057L-620,6057L-617,6052L-621,6051L-619,6049L-622,6047L-617,6047L-615,6049L-614,6046L-611,6046L-613,6044L-610,6043L-613,6038L-616,6034L-616,6033L-614,6036L-613,6036L-613,6033L-616,6032L-617,6030L-619,6030L-618,6033L-621,6032L-622,6033C-622,6033 -621.794,6034.78 -621,6035C-620.206,6035.22 -616,6040 -616,6040L-616,6042L-619,6041L-623,6039L-626,6039L-623,6043L-626,6042L-626,6046L-630,6046L-628,6042L-632,6045L-635,6045L-632,6048L-633,6050L-636,6046L-638,6046L-637,6044L-638,6041L-633,6041L-632,6037L-634,6034L-632,6031L-633,6026L-637,6022L-640,6025L-636,6028L-638,6030L-640,6030L-640,6032L-639,6033L-641,6034L-642,6035L-639,6037L-638,6039L-640,6040L-643,6039L-645,6036L-648,6035L-649,6036L-653,6036L-653,6038L-651,6043L-648,6045L-646,6047L-648,6048L-647,6050L-647,6052L-645,6053L-650,6051L-651,6050L-651,6048L-650,6047L-653,6045L-655,6044L-655,6041L-656,6038L-662,6038L-666,6040L-667,6042L-663,6047L-664,6051L-669,6054L-666,6049L-666,6046L-670,6043L-672,6046L-677,6048L-679,6052L-679,6059L-681,6054L-679,6049L-690,6045L-693,6053L-692,6047L-694,6045L-698,6044L-700,6054L-702,6052L-702,6049L-700,6046L-703,6046L-702,6043L-700,6043L-710,6034L-711,6029L-712,6026L-715,6022L-717,6020L-722,6024C-722,6024 -726.714,6025.47 -727,6025C-727.286,6024.53 -731,6023 -731,6023L-732,6021C-732,6021 -724.254,6022.31 -724,6022C-723.746,6021.69 -721,6021 -721,6021L-718,6018L-719,6014L-725,6010L-726,6008L-726,6007L-719,6012C-719,6012 -717.23,6014.66 -717,6015C-716.77,6015.34 -714.731,6019.01 -715,6019C-715.269,6018.99 -713,6023 -713,6023L-711,6024C-711,6024 -707.926,6025.37 -708,6025C-708.074,6024.63 -706,6023 -706,6023L-704,6022L-705,6025L-706,6027L-702,6025L-702,6027L-704,6029L-703,6031L-699,6032L-696,6035L-694,6031C-694,6031 -692.571,6034.47 -693,6035C-693.429,6035.53 -689,6038 -689,6038L-684,6040L-681,6038L-679,6037L-683,6033L-683,6031L-680,6034L-677,6035L-677,6037L-673,6034L-672,6033L-674,6031L-674,6027L-672,6029C-672,6029 -670.536,6030.94 -670,6031C-669.464,6031.06 -668,6031 -668,6031L-666,6028L-664,6029L-663,6026L-661,6026L-657,6023L-656,6022L-659,6021L-662,6022L-664,6018L-660,6020L-656,6018L-654,6019L-652,6016L-650,6012L-648,6010L-652,6005L-655,6006L-655,6009L-652,6009L-653,6012L-655,6011C-655,6011 -655.726,6011.43 -656,6012C-656.274,6012.57 -659,6014 -659,6014C-659,6014 -658.442,6011.78 -658,6011C-657.558,6010.22 -656.398,6007.77 -657,6008C-657.602,6008.23 -661,6008 -661,6008C-661,6008 -662.157,6006.83 -663,6007C-663.843,6007.17 -666.121,6007.81 -666,6008C-665.879,6008.19 -666,6010 -666,6010L-669,6011C-669,6011 -668.898,6012.23 -670,6012C-671.102,6011.77 -675,6013 -675,6013C-675,6013 -675.092,6014.19 -675,6014C-674.908,6013.81 -675,6011 -675,6011L-677,6009C-677,6009 -673.084,6009.24 -673,6009C-672.916,6008.76 -670,6009 -670,6009C-670,6009 -668.66,6007.45 -668,6007C-667.34,6006.55 -666,6002 -666,6002L-664,6000L-662,6004L-660,6005L-657,6003L-660,6001.01L-657,6001.01L-656,5999L-651,6001.01L-646,6003L-645,6000L-654,5996L-655,5993C-655,5993 -647.837,5996.25 -647,5996C-646.163,5995.75 -642,5997 -642,5997L-641,5997L-649,5992L-640,5993L-642,5990L-637,5991L-638,5987L-640,5986L-641,5989C-641,5989 -641.377,5987 -642,5987C-642.623,5987 -643,5985 -643,5985C-643,5985 -641.389,5984.57 -641,5984C-640.611,5983.43 -640.182,5981.82 -640,5982C-639.818,5982.19 -641.077,5980.98 -641,5981C-640.923,5981.02 -645,5981 -645,5981L-647,5981L-646,5983L-647,5986L-647,5988L-648,5985L-649,5983L-648,5982L-650,5980L-655,5979L-657,5978C-657,5978 -656.846,5979.18 -657,5980C-657.154,5980.82 -658,5983 -658,5983L-658,5985L-655,5985L-658,5988L-661,5988L-666,5987L-666,5986L-663,5986C-663,5986 -661.73,5985.57 -661,5986C-660.27,5986.43 -659,5986 -659,5986L-662,5985C-662,5985 -661.418,5984.51 -661,5984C-660.582,5983.49 -659,5982 -659,5982L-661,5981L-662,5981L-660,5978L-662,5976L-664,5977L-668,5976L-673,5981L-671,5977L-674,5977L-679,5980L-683,5981L-679,5977L-672,5974L-670,5974L-669,5973L-679,5970L-686,5968L-687,5971L-692,5971L-689,5967L-693,5963L-699,5962L-700,5964L-703,5964L-701,5960L-704,5959L-706,5960L-707,5962L-707,5965L-708,5967L-711,5962L-709,5959L-711,5955L-717,5951L-721,5947L-722,5945L-716,5949L-725,5939L-713,5950L-709,5952L-709,5947L-706,5952L-702,5953L-703,5955C-703,5955 -701.25,5955.71 -700,5956C-698.75,5956.29 -692,5957 -692,5957L-689,5957L-687,5950L-685,5947L-686,5954C-686,5954 -683.137,5955.14 -684,5955C-684.863,5954.86 -687,5958 -687,5958L-684,5961L-680,5962L-680,5964L-675,5962L-672,5960C-672,5960 -669.292,5962.29 -669,5963C-668.708,5963.71 -665,5964 -665,5964L-663,5957L-661,5962L-664,5963L-664,5965C-664,5965 -662.034,5965.36 -661,5966C-659.966,5966.64 -652,5969 -652,5969L-653,5966L-657,5965L-655,5961L-658,5958C-658,5958 -660.974,5956.09 -660,5956C-659.026,5955.91 -657,5956 -657,5956L-657,5952L-662,5947L-664,5949L-668,5950L-672,5950C-672,5950 -674.874,5948.56 -675,5948C-675.126,5947.44 -675,5946 -675,5946L-672,5948L-668,5949L-665,5948L-663,5946L-660,5946L-661,5943L-665,5943L-669,5942L-670,5940L-667,5941L-665,5939L-665,5936.43L-663,5940L-660,5942L-659,5944L-658,5945L-656,5942L-653,5941L-651,5944L-645,5944L-640,5943L-639,5941L-641,5939L-645,5936.43L-647,5935L-639,5937L-636,5940L-637,5942L-637,5946L-635,5948L-639,5948L-640,5951L-643,5949L-650,5948L-654,5948L-651,5951L-651,5955L-649,5954L-647,5951L-643,5955L-641,5958L-644,5957L-646,5955L-647,5956L-648,5958L-650,5959L-650,5960L-649,5961L-647,5962L-645,5960L-644,5962L-642,5963L-648,5965L-647,5967L-645,5968L-643,5965L-642,5967L-642,5970L-641,5971L-639,5972L-636,5973L-638,5970L-639,5968L-639,5966L-637,5966L-637,5963L-636,5961L-635,5963L-635,5966L-637,5968L-634,5967L-633,5965L-631,5964L-632,5961L-629,5962L-632,5958L-629,5957C-629,5957 -628.897,5961.45 -628,5962C-627.103,5962.55 -625,5965 -625,5965C-625,5965 -626.565,5964.41 -627,5965C-627.435,5965.59 -625,5969 -625,5969L-624,5972L-630,5971L-630,5973L-627,5974L-624,5974L-622,5975L-619,5975L-622,5972L-621,5968L-622,5965L-622,5963L-619,5966L-618,5969L-615,5970L-615,5974L-610,5976L-608,5976L-608,5967L-606,5972L-598,5976L-592,5975L-588,5974L-584,5971L-581,5969L-583,5967C-583,5967 -582.387,5964.48 -582,5964C-581.613,5963.52 -580,5962 -580,5962L-579,5961L-576,5963L-574,5962C-574,5962 -573.621,5957.62 -573,5957C-572.379,5956.38 -571,5956 -571,5956L-572,5954C-572,5954 -570.567,5951.67 -570,5952C-569.433,5952.33 -566,5950 -566,5950L-569,5947C-569,5947 -568.097,5945.06 -568,5945C-567.903,5944.94 -563.751,5946.35 -564,5946C-564.249,5945.65 -563,5944 -563,5944L-560,5943L-559,5941L-556,5936L-556,5926L-552,5929L-552,5934L-543,5934L-548,5938L-544,5938L-540,5936L-540,5933L-536,5931L-533,5928L-535,5924L-538,5921L-539,5918L-537,5915L-535,5915L-535,5918L-531,5918L-531,5913L-533,5908L-534,5902L-533,5899L-531,5898C-531,5898 -531.335,5893.41 -532,5893C-532.665,5892.59 -536,5890 -536,5890L-536,5885L-539,5878L-541,5875L-549,5867L-549,5871L-553,5874L-547,5875L-546,5878L-551,5877L-557,5875L-559,5876L-558,5879L-554,5882L-550,5883L-553,5885L-557,5884L-561,5878C-561,5878 -563.736,5878.38 -564,5879C-564.264,5879.62 -568,5882 -568,5882L-568,5886L-569,5891L-571,5896L-570,5908L-572,5913L-574,5919L-577,5918C-577,5918 -578.245,5915.97 -579,5915C-579.755,5914.03 -578.853,5908.83 -579,5908C-579.147,5907.17 -579.202,5904.32 -581,5904C-582.798,5903.68 -589,5898 -589,5898L-580,5903C-580,5903 -580.466,5898.85 -580,5898C-579.534,5897.15 -580,5891 -580,5891L-587,5883L-578,5886L-576,5877L-572,5875C-572,5875 -581.423,5877.6 -582,5878C-582.577,5878.4 -589,5872 -589,5872L-581,5875L-581,5869L-578,5873L-576,5873L-574,5871L-580,5865L-590,5865L-593,5863L-607,5867L-615,5870L-615,5873L-607,5876L-613,5877L-620,5873L-625,5875C-625,5875 -623.597,5873.07 -624,5872C-624.403,5870.93 -627,5868 -627,5868L-631,5867L-640,5870L-650,5873L-658,5873L-663,5874L-669,5874L-670,5873L-674,5874L-676,5874C-676,5874 -673.906,5870.06 -673,5869C-672.094,5867.94 -670,5865 -670,5865L-668,5865L-672,5857L-674,5851L-674,5847L-678,5841L-678,5828L-674,5820L-671,5817L-674,5810L-681,5805L-684,5803L-696,5799L-699,5797L-700,5795L-690,5798C-690,5798 -682.28,5800.72 -682,5801C-681.72,5801.28 -677,5805 -677,5805L-674,5808L-670,5811L-667,5813L-667,5818L-670,5826L-673,5830L-673,5837L-671,5843L-668,5845L-670,5849L-669,5853L-667,5856L-663,5857L-661,5857L-665,5851L-658,5854L-657,5858L-654,5861L-646,5862L-639,5860L-635,5857L-631,5853C-631,5853 -627.732,5852.27 -629,5852C-630.268,5851.73 -641,5847.94 -641,5847.94C-641,5847.94 -632.46,5848.48 -632,5849C-631.54,5849.52 -633,5843 -633,5843L-628,5850L-617,5847.94L-614,5847L-620,5844C-620,5844 -622.15,5842.62 -623,5843C-623.85,5843.38 -627,5841 -627,5841C-627,5841 -629.622,5839.93 -630,5839C-630.378,5838.07 -632.856,5835.42 -633,5835C-633.144,5834.58 -637,5832 -637,5832L-638,5828L-630,5833L-627,5835L-626,5832L-624,5839L-616,5841L-613,5842L-608,5845L-603,5847L-600,5847L-599,5846L-605,5842L-605,5839L-609,5835L-610,5833L-614,5833.97L-613,5831L-613,5827C-613,5827 -613.603,5825.99 -613,5826C-612.397,5826.01 -608,5831 -608,5831L-607,5833L-605,5833.97L-603,5831L-603,5837L-598,5842L-595,5843L-591,5843L-587,5842L-594,5837L-586,5840L-582,5839L-580,5835L-582,5831L-585,5829L-588,5826L-592,5827L-590,5823L-591,5820L-600,5814L-602,5811L-598,5813L-592,5814L-588,5816L-586,5820L-584,5823L-580,5823L-578,5827L-576,5830L-572,5833L-567,5835L-560,5835L-563,5832L-570,5828L-565,5827L-566,5821L-567,5818L-566,5815L-563,5818L-562,5822L-558,5829L-555,5832L-553,5835L-552,5843L-550,5847L-545,5852L-543,5855L-565,5766C-565,5766 -1195.89,5791.03 -1362,5763.01L-1369,5774L-1368,5780L-1371,5790L-1374,5796L-1371,5803L-1376,5808L-1383,5803L-1394,5810L-1404,5827L-1413,5838L-1422,5846L-1432,5842L-1439,5836L-1445,5837L-1454,5840L-1468,5847.94L-1474,5857L-1482,5865L-1488,5868L-1494,5867L-1498,5862L-1494,5856L-1500,5850L-1506,5855L-1515,5858L-1519,5862L-1521,5866L-1525,5873L-1530,5867L-1534,5868L-1537,5869L-1540,5873L-1538,5875L-1540,5882L-1543,5888L-1551,5897L-1556,5895L-1563,5895L-1568,5896L-1574,5898L-1579,5901L-1586,5904L-1591,5911L-1598,5915L-1604,5914L-1606,5919L-1613,5921L-1618,5923L-1623,5928L-1629,5930L-1637,5930L-1640,5927L-1648,5929C-1648,5929 -1655.57,5927.69 -1657,5928C-1658.43,5928.31 -1664,5930 -1664,5930C-1664,5930 -1667.82,5932.55 -1669,5933C-1670.18,5933.45 -1677,5933 -1677,5933L-1680,5938L-1686,5944L-1692,5946C-1692,5946 -1695.11,5947.24 -1696,5948C-1696.89,5948.76 -1699,5952 -1699,5952L-1697,5955L-1698,5959L-1702,5962L-1702,5965L-1701,5967L-1702,5969L-1700,5972L-1706,5975L-1710,5978C-1710,5978 -1714.3,5979.2 -1715,5979C-1715.7,5978.8 -1720,5979 -1720,5979L-1725,5979L-1728,5975L-1736,5981L-1738,5983L-1743,6007L-1746,6022L-1573,6030L-1527,6015L-1527,6019L-1519,6016L-1504,6010C-1504,6010 -1492.15,6005.7 -1490,6005C-1487.85,6004.3 -1481,6002 -1481,6002C-1481,6002 -1484.34,6005.33 -1482,6005C-1479.66,6004.67 -1474,6003 -1474,6003L-1475,5999L-1470,5995L-1469,6001.01L-1283,6012Z" style="fill:white;"/>
                </g>
                <g transform="matrix(2.04622,0,0,2.04622,16733.7,-11765)">
                    <path d="M-194,5833.97C-194,5826.26 -187.741,5820 -180.031,5820C-172.321,5820 -166.062,5826.26 -166.062,5833.97C-166.062,5837.19 -167,5839.76 -167.993,5842.53C-167.993,5842.53 -176.995,5866.63 -179.43,5873.15C-179.524,5873.4 -179.763,5873.57 -180.031,5873.57C-180.299,5873.57 -180.538,5873.4 -180.632,5873.15C-183.067,5866.63 -192.069,5842.53 -192.069,5842.53C-193,5839.76 -194,5837.19 -194,5833.97Z" style="fill:white;stroke:rgb(47,111,102);stroke-width:2.93px;stroke-linecap:round;"/>
                </g>
                <g transform="matrix(0.978268,0,0,0.978268,15260.9,-6346.55)">
                    <circle cx="1128.93" cy="6665.07" r="17.933" style="fill:white;stroke:rgb(47,111,102);stroke-width:6.13px;"/>
                </g>
            </g>
        </g>
    </g>
</svg>
